<?xml version="1.0" encoding="utf-8"?>
<!-- Generator: Adobe Illustrator 14.0.0, SVG Export Plug-In  -->
<!DOCTYPE svg PUBLIC "-//W3C//DTD SVG 1.1//EN" "http://www.w3.org/Graphics/SVG/1.1/DTD/svg11.dtd" [
	<!ENTITY ns_flows "http://ns.adobe.com/Flows/1.0/">
]>
<svg version="1.1"
	 xmlns="http://www.w3.org/2000/svg" xmlns:xlink="http://www.w3.org/1999/xlink" xmlns:a="http://ns.adobe.com/AdobeSVGViewerExtensions/3.0/"
	 x="0px" y="0px" width="151px" height="62px" viewBox="3 2.5 151 62" enable-background="new 3 2.5 151 62" xml:space="preserve">
<defs>
</defs>
<rect display="none" fill="#FFFFFF" width="156.471" height="70.735"/>
<path display="none" fill="#36B27C" d="M21.648,61.093v-8.802h1.76v1.176c0.179-0.349,0.439-0.651,0.781-0.911
	c0.341-0.259,0.721-0.389,1.138-0.389c0.014,0,0.108,0.01,0.282,0.028v1.945c-0.326-0.128-0.651-0.192-0.977-0.192
	c-0.367,0-0.663,0.11-0.887,0.33s-0.337,0.512-0.337,0.873v5.941H21.648z"/>
<path display="none" fill="#36B27C" d="M28.833,61.217c-0.426,0-0.796-0.073-1.11-0.221c-0.314-0.146-0.564-0.337-0.75-0.574
	c-0.186-0.235-0.336-0.538-0.45-0.907c-0.115-0.369-0.194-0.737-0.237-1.106s-0.07-0.8-0.079-1.29c-0.014-0.385-0.014-0.77,0-1.155
	c0.014-0.458,0.044-0.864,0.093-1.221c0.048-0.354,0.132-0.7,0.251-1.034c0.119-0.335,0.274-0.61,0.464-0.825
	c0.19-0.216,0.44-0.389,0.75-0.52c0.31-0.13,0.67-0.196,1.083-0.196c0.376,0,0.708,0.05,0.994,0.148
	c0.287,0.099,0.525,0.248,0.715,0.446c0.19,0.2,0.348,0.421,0.475,0.664c0.126,0.243,0.221,0.538,0.285,0.884
	c0.064,0.347,0.109,0.687,0.134,1.021c0.025,0.335,0.038,0.72,0.038,1.155v0.207h-3.521v0.439c0,0.06,0,0.153,0,0.282
	c-0.009,0.17-0.01,0.346-0.003,0.526s0.015,0.358,0.024,0.532c0.009,0.175,0.035,0.34,0.076,0.499
	c0.042,0.157,0.092,0.297,0.151,0.416s0.143,0.213,0.251,0.281c0.107,0.069,0.235,0.104,0.381,0.104
	c0.184,0,0.335-0.035,0.454-0.107c0.119-0.069,0.208-0.177,0.265-0.319c0.057-0.142,0.098-0.284,0.12-0.426
	c0.023-0.143,0.037-0.321,0.042-0.536v-0.372h1.747v0.352c-0.042,0.939-0.273,1.649-0.694,2.131
	C30.358,60.976,29.709,61.217,28.833,61.217z M27.967,55.812h1.747v-0.529c-0.005-0.233-0.019-0.438-0.042-0.612
	c-0.023-0.174-0.063-0.348-0.12-0.522c-0.057-0.174-0.146-0.307-0.265-0.398s-0.266-0.138-0.44-0.138
	c-0.179,0-0.329,0.048-0.45,0.145s-0.211,0.235-0.268,0.416c-0.058,0.182-0.098,0.358-0.121,0.533
	c-0.023,0.174-0.037,0.383-0.041,0.625V55.812z"/>
<path display="none" fill="#36B27C" d="M35.07,61.217c-0.724,0-1.305-0.216-1.743-0.646c-0.438-0.431-0.737-0.99-0.897-1.678
	l1.32-0.44c0.316,0.88,0.756,1.32,1.32,1.32c0.28,0,0.496-0.076,0.65-0.23c0.153-0.153,0.23-0.37,0.23-0.649
	c0-0.408-0.147-0.747-0.44-1.018l-1.76-1.32c-0.197-0.133-0.362-0.259-0.495-0.375c-0.133-0.117-0.268-0.26-0.406-0.43
	c-0.137-0.17-0.242-0.36-0.313-0.57c-0.071-0.211-0.107-0.44-0.107-0.688c0-0.751,0.24-1.327,0.719-1.726s1.12-0.599,1.922-0.599
	c0.38,0,0.724,0.062,1.031,0.183c0.307,0.122,0.565,0.292,0.774,0.513c0.208,0.22,0.38,0.464,0.516,0.732
	c0.135,0.268,0.242,0.566,0.32,0.896l-1.32,0.44c-0.064-0.174-0.128-0.324-0.193-0.451c-0.064-0.125-0.15-0.262-0.258-0.408
	c-0.107-0.146-0.235-0.26-0.381-0.34c-0.147-0.08-0.31-0.121-0.488-0.121c-0.28,0-0.496,0.077-0.65,0.23
	c-0.153,0.154-0.23,0.37-0.23,0.649c0,0.275,0.147,0.523,0.44,0.743l1.76,1.32c0.197,0.155,0.365,0.306,0.505,0.45
	c0.14,0.144,0.276,0.313,0.409,0.502c0.133,0.19,0.234,0.402,0.302,0.636c0.069,0.234,0.104,0.483,0.104,0.75
	c0,0.752-0.24,1.327-0.719,1.726S35.873,61.217,35.07,61.217z"/>
<path display="none" fill="#36B27C" d="M38.783,63.733V52.291h1.761v0.88c0.142-0.15,0.24-0.254,0.295-0.309
	c0.055-0.056,0.15-0.141,0.285-0.255c0.135-0.114,0.252-0.194,0.351-0.24s0.225-0.091,0.378-0.134
	c0.154-0.044,0.313-0.066,0.478-0.066c0.298,0,0.564,0.055,0.797,0.162c0.234,0.108,0.427,0.237,0.578,0.389
	c0.151,0.151,0.28,0.368,0.385,0.649c0.105,0.282,0.185,0.538,0.237,0.767c0.053,0.229,0.093,0.539,0.12,0.929
	c0.028,0.39,0.044,0.705,0.048,0.945c0.004,0.241,0.007,0.572,0.007,0.993v0.131c0,0.386-0.02,0.757-0.059,1.114
	s-0.11,0.721-0.213,1.09c-0.104,0.369-0.234,0.688-0.392,0.959s-0.369,0.492-0.633,0.663c-0.263,0.173-0.565,0.259-0.904,0.259
	c-0.596,0-1.183-0.305-1.76-0.915v3.432H38.783z M41.864,59.772c0.188,0,0.345-0.068,0.471-0.206s0.218-0.333,0.275-0.589
	c0.058-0.253,0.096-0.506,0.117-0.756c0.021-0.249,0.031-0.542,0.031-0.877l-0.014-1.161c0-0.207-0.001-0.372-0.003-0.499
	c-0.002-0.126-0.01-0.293-0.024-0.502c-0.014-0.208-0.034-0.379-0.059-0.513c-0.025-0.133-0.063-0.279-0.114-0.439
	c-0.05-0.16-0.111-0.287-0.182-0.378c-0.071-0.092-0.163-0.17-0.275-0.234s-0.24-0.096-0.382-0.096
	c-0.068,0-0.134,0.004-0.196,0.014c-0.062,0.009-0.126,0.023-0.192,0.045c-0.066,0.02-0.122,0.039-0.165,0.055
	c-0.043,0.017-0.1,0.042-0.168,0.079c-0.069,0.036-0.118,0.063-0.148,0.078c-0.03,0.018-0.082,0.048-0.155,0.094
	s-0.119,0.073-0.137,0.082v5.446C40.947,59.653,41.387,59.772,41.864,59.772z"/>
<path display="none" fill="#36B27C" d="M50.452,60.392c-0.408,0.55-1.084,0.825-2.028,0.825s-1.621-0.275-2.028-0.825
	c-0.408-0.551-0.612-1.344-0.612-2.38v-2.64c0-1.036,0.204-1.829,0.612-2.38c0.408-0.55,1.084-0.825,2.028-0.825
	s1.621,0.275,2.028,0.825c0.408,0.551,0.612,1.344,0.612,2.38v2.64C51.064,59.048,50.86,59.841,50.452,60.392z M48.098,59.718
	c0.093,0.036,0.202,0.055,0.326,0.055c0.124,0,0.232-0.019,0.326-0.055c0.094-0.037,0.173-0.081,0.234-0.135
	c0.063-0.052,0.114-0.13,0.155-0.233c0.042-0.103,0.074-0.193,0.097-0.271s0.039-0.19,0.048-0.337s0.015-0.263,0.017-0.347
	c0.002-0.085,0.003-0.213,0.003-0.383v-2.64c0-0.17-0.001-0.297-0.003-0.383c-0.002-0.084-0.008-0.199-0.017-0.347
	c-0.009-0.146-0.025-0.259-0.048-0.337s-0.055-0.169-0.097-0.271c-0.041-0.104-0.092-0.182-0.155-0.234
	c-0.061-0.053-0.14-0.098-0.234-0.135c-0.094-0.036-0.203-0.055-0.326-0.055c-0.124,0-0.233,0.019-0.326,0.055
	c-0.095,0.037-0.173,0.082-0.234,0.135c-0.063,0.053-0.114,0.13-0.155,0.234c-0.041,0.102-0.073,0.192-0.096,0.271
	s-0.039,0.19-0.048,0.337c-0.009,0.147-0.016,0.263-0.017,0.347c-0.003,0.086-0.004,0.213-0.004,0.383v2.64
	c0,0.17,0.001,0.298,0.004,0.383c0.001,0.084,0.008,0.2,0.017,0.347c0.009,0.146,0.025,0.259,0.048,0.337s0.055,0.169,0.096,0.271
	c0.042,0.104,0.093,0.182,0.155,0.233C47.925,59.637,48.003,59.681,48.098,59.718z"/>
<path display="none" fill="#36B27C" d="M52.508,61.093v-8.802h1.76v0.949c0.261-0.238,0.475-0.42,0.64-0.547
	c0.165-0.126,0.393-0.245,0.685-0.357c0.29-0.112,0.601-0.169,0.931-0.169c0.376,0,0.681,0.138,0.915,0.413s0.351,0.612,0.351,1.011
	v7.502h-1.76v-6.602c0-0.307-0.043-0.53-0.131-0.671c-0.087-0.139-0.263-0.209-0.529-0.209c-0.151,0-0.302,0.03-0.45,0.094
	c-0.149,0.061-0.26,0.119-0.333,0.171c-0.073,0.054-0.179,0.137-0.316,0.251v6.966H52.508z"/>
<path display="none" fill="#36B27C" d="M61.64,61.217c-0.724,0-1.306-0.216-1.743-0.646C59.458,60.14,59.16,59.58,59,58.893
	l1.32-0.44c0.316,0.88,0.756,1.32,1.32,1.32c0.28,0,0.496-0.076,0.65-0.23c0.153-0.153,0.23-0.37,0.23-0.649
	c0-0.408-0.147-0.747-0.44-1.018l-1.76-1.32c-0.197-0.133-0.362-0.259-0.495-0.375c-0.133-0.117-0.268-0.26-0.405-0.43
	c-0.138-0.17-0.242-0.36-0.313-0.57C59.035,54.969,59,54.739,59,54.491c0-0.751,0.239-1.327,0.719-1.726
	c0.478-0.398,1.119-0.599,1.921-0.599c0.38,0,0.725,0.062,1.032,0.183c0.307,0.122,0.564,0.292,0.774,0.513
	c0.208,0.22,0.379,0.464,0.515,0.732c0.135,0.268,0.242,0.566,0.32,0.896l-1.32,0.44c-0.064-0.174-0.128-0.324-0.192-0.451
	c-0.064-0.125-0.151-0.262-0.258-0.408c-0.108-0.146-0.235-0.26-0.382-0.34s-0.31-0.121-0.488-0.121c-0.279,0-0.497,0.077-0.65,0.23
	c-0.154,0.154-0.23,0.37-0.23,0.649c0,0.275,0.146,0.523,0.44,0.743l1.76,1.32c0.197,0.155,0.365,0.306,0.505,0.45
	c0.14,0.144,0.277,0.313,0.41,0.502c0.133,0.19,0.234,0.402,0.303,0.636c0.068,0.234,0.103,0.483,0.103,0.75
	c0,0.752-0.24,1.327-0.719,1.726C63.082,61.017,62.442,61.217,61.64,61.217z"/>
<path display="none" fill="#36B27C" d="M65.429,50.971v-1.76h1.76v1.76H65.429z M65.429,61.093v-8.802h1.76v8.802H65.429z"/>
<path display="none" fill="#36B27C" d="M70.187,61.093l-1.98-8.802h1.691l1.224,6.608l1.114-6.608h1.691l-1.966,8.802H70.187z"/>
<path display="none" fill="#36B27C" d="M77.249,61.217c-0.426,0-0.797-0.073-1.11-0.221c-0.315-0.146-0.564-0.337-0.75-0.574
	c-0.185-0.235-0.335-0.538-0.45-0.907c-0.115-0.369-0.194-0.737-0.238-1.106s-0.07-0.8-0.079-1.29c-0.014-0.385-0.014-0.77,0-1.155
	c0.014-0.458,0.045-0.864,0.092-1.221c0.049-0.354,0.132-0.7,0.251-1.034c0.119-0.335,0.273-0.61,0.464-0.825
	c0.19-0.216,0.44-0.389,0.75-0.52c0.309-0.13,0.67-0.196,1.083-0.196c0.376,0,0.707,0.05,0.994,0.148
	c0.286,0.099,0.524,0.248,0.715,0.446c0.189,0.2,0.347,0.421,0.474,0.664c0.125,0.243,0.222,0.538,0.286,0.884
	c0.064,0.347,0.108,0.687,0.134,1.021c0.024,0.335,0.037,0.72,0.037,1.155v0.207h-3.52v0.439c0,0.06,0,0.153,0,0.282
	c-0.009,0.17-0.01,0.346-0.004,0.526c0.008,0.181,0.015,0.358,0.024,0.532c0.009,0.175,0.034,0.34,0.076,0.499
	c0.041,0.157,0.092,0.297,0.151,0.416s0.143,0.213,0.251,0.281c0.107,0.069,0.234,0.104,0.381,0.104
	c0.184,0,0.335-0.035,0.454-0.107c0.119-0.069,0.207-0.177,0.265-0.319c0.057-0.142,0.097-0.284,0.12-0.426
	c0.023-0.143,0.037-0.321,0.042-0.536v-0.372h1.746v0.352c-0.041,0.939-0.272,1.649-0.694,2.131S78.124,61.217,77.249,61.217z
	 M76.382,55.812h1.747v-0.529c-0.005-0.233-0.019-0.438-0.042-0.612c-0.023-0.174-0.063-0.348-0.12-0.522
	c-0.058-0.174-0.146-0.307-0.265-0.398s-0.266-0.138-0.44-0.138c-0.179,0-0.329,0.048-0.45,0.145
	c-0.123,0.097-0.212,0.235-0.269,0.416c-0.057,0.182-0.097,0.358-0.12,0.533c-0.023,0.174-0.037,0.383-0.041,0.625V55.812z"/>
<path display="none" fill="#36B27C" d="M89.336,61.217c-0.692,0-1.195-0.177-1.508-0.53c-0.314-0.353-0.477-0.887-0.486-1.602
	v-5.474h-0.88v-1.32h0.88v-3.08h1.76v3.08h1.32v1.32h-1.32v5.137c0,0.353,0.049,0.612,0.146,0.777s0.29,0.247,0.583,0.247
	c0.128,0,0.326-0.022,0.591-0.068v1.43C89.983,61.188,89.621,61.217,89.336,61.217z"/>
<path display="none" fill="#36B27C" d="M94.15,61.217c-0.426,0-0.796-0.073-1.109-0.221c-0.315-0.146-0.564-0.337-0.75-0.574
	c-0.185-0.235-0.336-0.538-0.451-0.907s-0.194-0.737-0.237-1.106c-0.044-0.369-0.07-0.8-0.08-1.29c-0.014-0.385-0.014-0.77,0-1.155
	c0.014-0.458,0.046-0.864,0.093-1.221c0.049-0.354,0.131-0.7,0.251-1.034c0.119-0.335,0.273-0.61,0.464-0.825
	c0.189-0.216,0.44-0.389,0.75-0.52c0.309-0.13,0.669-0.196,1.082-0.196c0.376,0,0.708,0.05,0.995,0.148
	c0.286,0.099,0.524,0.248,0.715,0.446c0.189,0.2,0.347,0.421,0.474,0.664c0.125,0.243,0.222,0.538,0.286,0.884
	c0.064,0.347,0.108,0.687,0.135,1.021c0.024,0.335,0.037,0.72,0.037,1.155v0.207h-3.521v0.439c0,0.06,0,0.153,0,0.282
	c-0.009,0.17-0.009,0.346-0.003,0.526c0.008,0.181,0.016,0.358,0.024,0.532c0.009,0.175,0.034,0.34,0.075,0.499
	c0.041,0.157,0.091,0.297,0.151,0.416s0.144,0.213,0.252,0.281c0.107,0.069,0.234,0.104,0.38,0.104c0.184,0,0.334-0.035,0.454-0.107
	c0.12-0.069,0.208-0.177,0.266-0.319c0.057-0.142,0.096-0.284,0.119-0.426c0.023-0.143,0.037-0.321,0.042-0.536v-0.372h1.746v0.352
	c-0.041,0.939-0.272,1.649-0.693,2.131C95.675,60.976,95.025,61.217,94.15,61.217z M93.283,55.812h1.747v-0.529
	c-0.004-0.233-0.018-0.438-0.041-0.612c-0.023-0.174-0.063-0.348-0.119-0.522c-0.058-0.174-0.147-0.307-0.266-0.398
	s-0.266-0.138-0.44-0.138c-0.179,0-0.329,0.048-0.449,0.145c-0.122,0.097-0.212,0.235-0.269,0.416
	c-0.058,0.182-0.098,0.358-0.121,0.533c-0.023,0.174-0.037,0.383-0.042,0.625V55.812z"/>
<path display="none" fill="#36B27C" d="M98.077,61.093v-8.802h1.761v0.997c0.628-0.747,1.358-1.121,2.193-1.121
	c0.421,0,0.731,0.094,0.929,0.278c0.197,0.187,0.33,0.48,0.398,0.884c0.289-0.38,0.601-0.669,0.936-0.866s0.756-0.296,1.266-0.296
	c0.146,0,0.277,0.016,0.396,0.045c0.116,0.03,0.219,0.065,0.306,0.106c0.087,0.042,0.163,0.105,0.23,0.189
	c0.065,0.085,0.121,0.163,0.165,0.234c0.043,0.071,0.079,0.173,0.11,0.306c0.028,0.133,0.05,0.243,0.063,0.33
	s0.026,0.215,0.035,0.385c0.01,0.17,0.014,0.303,0.014,0.398c0,0.097,0,0.241,0,0.434c0,0.041,0,0.073,0,0.097v6.401h-1.76V54.67
	c0-0.022,0-0.06,0-0.109c0-0.151-0.003-0.269-0.008-0.351c-0.005-0.083-0.02-0.178-0.044-0.285c-0.026-0.107-0.07-0.188-0.135-0.237
	c-0.064-0.051-0.148-0.076-0.254-0.076c-0.179,0-0.357,0.036-0.536,0.107c-0.179,0.07-0.317,0.14-0.416,0.206
	s-0.221,0.159-0.368,0.278v6.89h-1.76v-6.388c0-0.028,0-0.069,0-0.124c0-0.129,0-0.225,0-0.289s-0.01-0.147-0.024-0.251
	c-0.017-0.103-0.038-0.18-0.066-0.23c-0.027-0.05-0.069-0.096-0.13-0.138c-0.06-0.041-0.133-0.062-0.22-0.062
	c-0.431,0-0.871,0.186-1.32,0.557v6.925H98.077z"/>
<path display="none" fill="#36B27C" d="M108.419,63.733V52.291h1.76v0.88c0.143-0.15,0.24-0.254,0.295-0.309
	c0.056-0.056,0.15-0.141,0.286-0.255c0.134-0.114,0.252-0.194,0.352-0.24c0.098-0.046,0.223-0.091,0.377-0.134
	c0.153-0.044,0.313-0.066,0.479-0.066c0.298,0,0.563,0.055,0.798,0.162c0.233,0.108,0.426,0.237,0.577,0.389
	s0.279,0.368,0.385,0.649c0.105,0.282,0.184,0.538,0.237,0.767c0.052,0.229,0.093,0.539,0.121,0.929
	c0.027,0.39,0.042,0.705,0.047,0.945c0.005,0.241,0.008,0.572,0.008,0.993v0.131c0,0.386-0.02,0.757-0.059,1.114
	s-0.109,0.721-0.214,1.09c-0.102,0.369-0.233,0.688-0.391,0.959c-0.159,0.271-0.37,0.492-0.633,0.663
	c-0.265,0.173-0.565,0.259-0.904,0.259c-0.596,0-1.183-0.305-1.761-0.915v3.432H108.419z M111.499,59.772
	c0.188,0,0.344-0.068,0.471-0.206c0.125-0.138,0.217-0.333,0.275-0.589c0.057-0.253,0.096-0.506,0.117-0.756
	c0.021-0.249,0.03-0.542,0.03-0.877l-0.014-1.161c0-0.207-0.001-0.372-0.003-0.499c-0.003-0.126-0.011-0.293-0.024-0.502
	c-0.014-0.208-0.033-0.379-0.058-0.513c-0.026-0.133-0.064-0.279-0.115-0.439c-0.05-0.16-0.111-0.287-0.182-0.378
	c-0.071-0.092-0.163-0.17-0.274-0.234c-0.113-0.064-0.24-0.096-0.383-0.096c-0.068,0-0.133,0.004-0.195,0.014
	c-0.061,0.009-0.127,0.023-0.192,0.045c-0.067,0.02-0.122,0.039-0.165,0.055c-0.044,0.017-0.1,0.042-0.168,0.079
	c-0.069,0.036-0.119,0.063-0.148,0.078c-0.03,0.018-0.081,0.048-0.154,0.094s-0.119,0.073-0.138,0.082v5.446
	C110.582,59.653,111.022,59.772,111.499,59.772z"/>
<path display="none" fill="#36B27C" d="M115.59,61.093V48.771h1.76v12.322H115.59z"/>
<path display="none" fill="#36B27C" d="M120.452,61.217c-0.491,0-0.908-0.212-1.249-0.636c-0.342-0.424-0.512-0.902-0.512-1.435
	c0-0.426,0.072-0.813,0.217-1.162c0.144-0.348,0.297-0.626,0.457-0.836c0.161-0.207,0.428-0.423,0.804-0.646
	c0.376-0.222,0.66-0.375,0.853-0.457c0.193-0.083,0.527-0.218,1.004-0.406c0.083-0.032,0.146-0.057,0.187-0.075v-0.633
	c0-0.444-0.063-0.789-0.187-1.034c-0.123-0.245-0.354-0.368-0.693-0.368c-0.303,0-0.52,0.104-0.649,0.313
	c-0.132,0.209-0.206,0.496-0.225,0.863c-0.005,0.05-0.006,0.126-0.006,0.227h-1.761c0.01-0.844,0.245-1.515,0.708-2.015
	s1.107-0.75,1.933-0.75c0.82,0,1.466,0.254,1.936,0.76c0.47,0.508,0.705,1.175,0.705,2.005v3.961c0,0.917,0.074,1.65,0.226,2.2
	h-1.752l-0.234-1.32c-0.092,0.184-0.166,0.325-0.223,0.427c-0.059,0.101-0.143,0.226-0.252,0.374
	c-0.11,0.149-0.221,0.265-0.33,0.344c-0.11,0.081-0.248,0.15-0.413,0.21S120.649,61.217,120.452,61.217z M121.332,59.772
	c0.124,0,0.244-0.037,0.36-0.11c0.118-0.073,0.205-0.145,0.265-0.213s0.133-0.16,0.22-0.275c0.014-0.022,0.026-0.038,0.035-0.048
	v-2.434c-0.073,0.05-0.195,0.128-0.365,0.233c-0.169,0.105-0.304,0.191-0.404,0.258c-0.102,0.066-0.224,0.158-0.365,0.275
	c-0.143,0.116-0.252,0.229-0.33,0.336c-0.078,0.108-0.147,0.24-0.207,0.396c-0.06,0.155-0.088,0.318-0.088,0.487
	C120.452,59.408,120.745,59.772,121.332,59.772z"/>
<path display="none" fill="#36B27C" d="M127.691,61.217c-0.691,0-1.194-0.177-1.508-0.53c-0.314-0.353-0.477-0.887-0.486-1.602
	v-5.474h-0.88v-1.32h0.88v-3.08h1.761v3.08h1.32v1.32h-1.32v5.137c0,0.353,0.049,0.612,0.146,0.777
	c0.096,0.165,0.29,0.247,0.583,0.247c0.129,0,0.326-0.022,0.592-0.068v1.43C128.338,61.188,127.976,61.217,127.691,61.217z"/>
<path display="none" fill="#36B27C" d="M132.505,61.217c-0.426,0-0.796-0.073-1.109-0.221c-0.314-0.146-0.563-0.337-0.75-0.574
	c-0.185-0.235-0.336-0.538-0.451-0.907c-0.114-0.369-0.193-0.737-0.236-1.106c-0.045-0.369-0.07-0.8-0.08-1.29
	c-0.014-0.385-0.014-0.77,0-1.155c0.014-0.458,0.046-0.864,0.094-1.221c0.049-0.354,0.131-0.7,0.25-1.034
	c0.12-0.335,0.274-0.61,0.465-0.825c0.189-0.216,0.44-0.389,0.75-0.52c0.309-0.13,0.67-0.196,1.082-0.196
	c0.376,0,0.708,0.05,0.995,0.148c0.285,0.099,0.524,0.248,0.715,0.446c0.189,0.2,0.347,0.421,0.474,0.664
	c0.125,0.243,0.222,0.538,0.286,0.884c0.064,0.347,0.108,0.687,0.134,1.021c0.025,0.335,0.037,0.72,0.037,1.155v0.207h-3.521v0.439
	c0,0.06,0,0.153,0,0.282c-0.009,0.17-0.009,0.346-0.003,0.526c0.008,0.181,0.015,0.358,0.024,0.532
	c0.009,0.175,0.033,0.34,0.075,0.499c0.041,0.157,0.091,0.297,0.15,0.416s0.145,0.213,0.253,0.281
	c0.106,0.069,0.233,0.104,0.38,0.104c0.184,0,0.335-0.035,0.454-0.107c0.119-0.069,0.208-0.177,0.266-0.319
	c0.057-0.142,0.097-0.284,0.119-0.426c0.023-0.143,0.037-0.321,0.041-0.536v-0.372h1.747v0.352
	c-0.041,0.939-0.272,1.649-0.693,2.131C134.03,60.976,133.381,61.217,132.505,61.217z M131.639,55.812h1.746v-0.529
	c-0.004-0.233-0.018-0.438-0.041-0.612c-0.022-0.174-0.063-0.348-0.119-0.522c-0.058-0.174-0.146-0.307-0.266-0.398
	s-0.266-0.138-0.44-0.138c-0.179,0-0.328,0.048-0.449,0.145c-0.122,0.097-0.212,0.235-0.269,0.416
	c-0.059,0.182-0.098,0.358-0.121,0.533c-0.022,0.174-0.036,0.383-0.041,0.625V55.812z"/>
<path display="none" fill="#5EC79E" d="M89.54,16.808c-0.027-0.284-0.072-0.498-0.131-0.64s-0.146-0.305-0.261-0.488
	c-0.115-0.183-0.253-0.316-0.418-0.399s-0.375-0.156-0.626-0.22c-0.252-0.064-0.542-0.096-0.873-0.096v7.068
	c0.266,0,0.501-0.016,0.708-0.048c0.206-0.032,0.388-0.069,0.544-0.11c0.156-0.041,0.293-0.117,0.413-0.227
	c0.119-0.11,0.217-0.207,0.295-0.289c0.078-0.083,0.145-0.218,0.2-0.406c0.055-0.188,0.096-0.341,0.124-0.46
	s0.047-0.312,0.061-0.578c0.014-0.266,0.021-0.479,0.021-0.64c0-0.16,0-0.41,0-0.75c0-0.091,0-0.16,0-0.206
	c0-0.357-0.003-0.628-0.008-0.812C89.583,17.326,89.567,17.092,89.54,16.808z"/>
<path display="none" fill="#5EC79E" d="M141.042,2.632H15.429L3.22,23.78l12.209,21.148h125.613l12.209-21.148L141.042,2.632z
	 M45.942,35.009c-1.238,1.104-2.741,1.656-4.511,1.656c-1.146,0-2.164-0.211-3.053-0.633c-0.889-0.421-1.606-0.995-2.152-1.719
	c-0.545-0.724-0.965-1.526-1.258-2.407s-0.463-1.824-0.509-2.833l5.075-0.977c0,0.504,0.009,0.949,0.027,1.334
	c0.019,0.385,0.066,0.806,0.145,1.259s0.184,0.825,0.316,1.114c0.133,0.289,0.321,0.532,0.564,0.729
	c0.243,0.197,0.529,0.295,0.859,0.295c0.99,0,1.485-0.633,1.485-1.898c0-1.732-0.977-3.456-2.929-5.17l-1.554-1.32
	c-0.495-0.413-0.889-0.756-1.183-1.031c-0.293-0.275-0.64-0.646-1.039-1.114c-0.398-0.467-0.71-0.919-0.935-1.354
	s-0.417-0.96-0.578-1.575c-0.16-0.614-0.241-1.265-0.241-1.953c0-2.008,0.637-3.596,1.912-4.765s2.966-1.753,5.075-1.753
	c1.751,0,3.241,0.624,4.47,1.87c1.229,1.247,1.843,2.75,1.843,4.511l-0.014,0.179c0,0.12,0,0.257,0,0.413l-5.17,0.715
	c0-0.101,0.007-0.259,0.021-0.475c0.014-0.215,0.021-0.392,0.021-0.529c0-0.33-0.023-0.646-0.069-0.949
	c-0.046-0.303-0.122-0.605-0.227-0.908c-0.105-0.303-0.269-0.543-0.488-0.722c-0.22-0.179-0.486-0.268-0.798-0.268
	c-0.55,0-0.962,0.215-1.238,0.646c-0.275,0.431-0.413,0.939-0.413,1.526c0,0.513,0.081,0.995,0.241,1.444
	c0.161,0.449,0.403,0.869,0.729,1.258s0.625,0.713,0.901,0.97c0.275,0.257,0.642,0.571,1.1,0.942
	c0.458,0.372,0.784,0.644,0.977,0.818c0.706,0.624,1.302,1.208,1.788,1.753s0.944,1.162,1.375,1.85
	c0.431,0.687,0.754,1.43,0.97,2.227c0.215,0.798,0.323,1.66,0.323,2.585C47.799,32.485,47.18,33.904,45.942,35.009z M56.207,36.157
	h-5.006V11.403h5.006V36.157z M77.831,36.157h-3.686l-0.11-17.41c-0.275,1.788-0.756,4.689-1.444,8.705
	c-0.688,4.016-1.169,6.917-1.444,8.705h-3.741l-3.039-17.52l-0.11,17.52h-3.7V11.403h5.996l2.641,16.502l2.847-16.502h5.79V36.157z
	 M94.015,21.333c-0.215,0.825-0.515,1.506-0.9,2.042c-0.385,0.537-0.88,0.967-1.485,1.293c-0.605,0.325-1.26,0.555-1.966,0.688
	s-1.522,0.204-2.448,0.213v10.588h-5.034V11.403h5.982c2.154,0,3.722,0.601,4.703,1.802c0.981,1.201,1.472,2.938,1.472,5.212
	C94.339,19.536,94.231,20.507,94.015,21.333z M107.575,36.157h-9.929V11.403h5.005v21.315h4.924V36.157z M120.905,14.841h-5.321
	v6.739h3.768v3.521h-3.768v7.618h5.321v3.438h-10.327V11.403h10.327V14.841z"/>
<path fill="#8EBD01" d="M21.648,61.093v-8.802h1.76v1.176c0.179-0.349,0.439-0.651,0.781-0.911c0.341-0.259,0.721-0.389,1.138-0.389
	c0.014,0,0.108,0.01,0.282,0.028v1.945c-0.326-0.128-0.651-0.192-0.977-0.192c-0.367,0-0.663,0.11-0.887,0.33
	s-0.337,0.512-0.337,0.873v5.941H21.648z"/>
<path fill="#8EBD01" d="M28.833,61.217c-0.426,0-0.796-0.073-1.11-0.221c-0.314-0.146-0.564-0.337-0.75-0.574
	c-0.186-0.235-0.336-0.538-0.45-0.907c-0.115-0.369-0.194-0.737-0.237-1.106s-0.07-0.8-0.079-1.29c-0.014-0.385-0.014-0.77,0-1.155
	c0.014-0.458,0.044-0.864,0.093-1.221c0.048-0.354,0.132-0.7,0.251-1.034c0.119-0.335,0.274-0.61,0.464-0.825
	c0.19-0.216,0.44-0.389,0.75-0.52c0.31-0.13,0.67-0.196,1.083-0.196c0.376,0,0.708,0.05,0.994,0.148
	c0.287,0.099,0.525,0.248,0.715,0.446c0.19,0.2,0.348,0.421,0.475,0.664c0.126,0.243,0.221,0.538,0.285,0.884
	c0.064,0.347,0.109,0.687,0.134,1.021c0.025,0.335,0.038,0.72,0.038,1.155v0.207h-3.521v0.439c0,0.06,0,0.153,0,0.282
	c-0.009,0.17-0.01,0.346-0.003,0.526s0.015,0.358,0.024,0.532c0.009,0.175,0.035,0.34,0.076,0.499
	c0.042,0.157,0.092,0.297,0.151,0.416s0.143,0.213,0.251,0.281c0.107,0.069,0.235,0.104,0.381,0.104
	c0.184,0,0.335-0.035,0.454-0.107c0.119-0.069,0.208-0.177,0.265-0.319c0.057-0.142,0.098-0.284,0.12-0.426
	c0.023-0.143,0.037-0.321,0.042-0.536v-0.372h1.747v0.352c-0.042,0.939-0.273,1.649-0.694,2.131
	C30.358,60.976,29.709,61.217,28.833,61.217z M27.967,55.812h1.747v-0.529c-0.005-0.233-0.019-0.438-0.042-0.612
	c-0.023-0.174-0.063-0.348-0.12-0.522c-0.057-0.174-0.146-0.307-0.265-0.398s-0.266-0.138-0.44-0.138
	c-0.179,0-0.329,0.048-0.45,0.145s-0.211,0.235-0.268,0.416c-0.058,0.182-0.098,0.358-0.121,0.533
	c-0.023,0.174-0.037,0.383-0.041,0.625V55.812z"/>
<path fill="#8EBD01" d="M35.07,61.217c-0.724,0-1.305-0.216-1.743-0.646c-0.438-0.431-0.737-0.99-0.897-1.678l1.32-0.44
	c0.316,0.88,0.756,1.32,1.32,1.32c0.28,0,0.496-0.076,0.65-0.23c0.153-0.153,0.23-0.37,0.23-0.649c0-0.408-0.147-0.747-0.44-1.018
	l-1.76-1.32c-0.197-0.133-0.362-0.259-0.495-0.375c-0.133-0.117-0.268-0.26-0.406-0.43c-0.137-0.17-0.242-0.36-0.313-0.57
	c-0.071-0.211-0.107-0.44-0.107-0.688c0-0.751,0.24-1.327,0.719-1.726s1.12-0.599,1.922-0.599c0.38,0,0.724,0.062,1.031,0.183
	c0.307,0.122,0.565,0.292,0.774,0.513c0.208,0.22,0.38,0.464,0.516,0.732c0.135,0.268,0.242,0.566,0.32,0.896l-1.32,0.44
	c-0.064-0.174-0.128-0.324-0.193-0.451c-0.064-0.125-0.15-0.262-0.258-0.408c-0.107-0.146-0.235-0.26-0.381-0.34
	c-0.147-0.08-0.31-0.121-0.488-0.121c-0.28,0-0.496,0.077-0.65,0.23c-0.153,0.154-0.23,0.37-0.23,0.649
	c0,0.275,0.147,0.523,0.44,0.743l1.76,1.32c0.197,0.155,0.365,0.306,0.505,0.45c0.14,0.144,0.276,0.313,0.409,0.502
	c0.133,0.19,0.234,0.402,0.302,0.636c0.069,0.234,0.104,0.483,0.104,0.75c0,0.752-0.24,1.327-0.719,1.726
	S35.873,61.217,35.07,61.217z"/>
<path fill="#8EBD01" d="M38.783,63.733V52.291h1.761v0.88c0.142-0.15,0.24-0.254,0.295-0.309c0.055-0.056,0.15-0.141,0.285-0.255
	c0.135-0.114,0.252-0.194,0.351-0.24s0.225-0.091,0.378-0.134c0.154-0.044,0.313-0.066,0.478-0.066c0.298,0,0.564,0.055,0.797,0.162
	c0.234,0.108,0.427,0.237,0.578,0.389c0.151,0.151,0.28,0.368,0.385,0.649c0.105,0.282,0.185,0.538,0.237,0.767
	c0.053,0.229,0.093,0.539,0.12,0.929c0.028,0.39,0.044,0.705,0.048,0.945c0.004,0.241,0.007,0.572,0.007,0.993v0.131
	c0,0.386-0.02,0.757-0.059,1.114s-0.11,0.721-0.213,1.09c-0.104,0.369-0.234,0.688-0.392,0.959s-0.369,0.492-0.633,0.663
	c-0.263,0.173-0.565,0.259-0.904,0.259c-0.596,0-1.183-0.305-1.76-0.915v3.432H38.783z M41.864,59.772
	c0.188,0,0.345-0.068,0.471-0.206s0.218-0.333,0.275-0.589c0.058-0.253,0.096-0.506,0.117-0.756
	c0.021-0.249,0.031-0.542,0.031-0.877l-0.014-1.161c0-0.207-0.001-0.372-0.003-0.499c-0.002-0.126-0.01-0.293-0.024-0.502
	c-0.014-0.208-0.034-0.379-0.059-0.513c-0.025-0.133-0.063-0.279-0.114-0.439c-0.05-0.16-0.111-0.287-0.182-0.378
	c-0.071-0.092-0.163-0.17-0.275-0.234s-0.24-0.096-0.382-0.096c-0.068,0-0.134,0.004-0.196,0.014
	c-0.062,0.009-0.126,0.023-0.192,0.045c-0.066,0.02-0.122,0.039-0.165,0.055c-0.043,0.017-0.1,0.042-0.168,0.079
	c-0.069,0.036-0.118,0.063-0.148,0.078c-0.03,0.018-0.082,0.048-0.155,0.094s-0.119,0.073-0.137,0.082v5.446
	C40.947,59.653,41.387,59.772,41.864,59.772z"/>
<path fill="#8EBD01" d="M50.452,60.392c-0.408,0.55-1.084,0.825-2.028,0.825s-1.621-0.275-2.028-0.825
	c-0.408-0.551-0.612-1.344-0.612-2.38v-2.64c0-1.036,0.204-1.829,0.612-2.38c0.408-0.55,1.084-0.825,2.028-0.825
	s1.621,0.275,2.028,0.825c0.408,0.551,0.612,1.344,0.612,2.38v2.64C51.064,59.048,50.86,59.841,50.452,60.392z M48.098,59.718
	c0.093,0.036,0.202,0.055,0.326,0.055c0.124,0,0.232-0.019,0.326-0.055c0.094-0.037,0.173-0.081,0.234-0.135
	c0.063-0.052,0.114-0.13,0.155-0.233c0.042-0.103,0.074-0.193,0.097-0.271s0.039-0.19,0.048-0.337s0.015-0.263,0.017-0.347
	c0.002-0.085,0.003-0.213,0.003-0.383v-2.64c0-0.17-0.001-0.297-0.003-0.383c-0.002-0.084-0.008-0.199-0.017-0.347
	c-0.009-0.146-0.025-0.259-0.048-0.337s-0.055-0.169-0.097-0.271c-0.041-0.104-0.092-0.182-0.155-0.234
	c-0.061-0.053-0.14-0.098-0.234-0.135c-0.094-0.036-0.203-0.055-0.326-0.055c-0.124,0-0.233,0.019-0.326,0.055
	c-0.095,0.037-0.173,0.082-0.234,0.135c-0.063,0.053-0.114,0.13-0.155,0.234c-0.041,0.102-0.073,0.192-0.096,0.271
	s-0.039,0.19-0.048,0.337c-0.009,0.147-0.016,0.263-0.017,0.347c-0.003,0.086-0.004,0.213-0.004,0.383v2.64
	c0,0.17,0.001,0.298,0.004,0.383c0.001,0.084,0.008,0.2,0.017,0.347c0.009,0.146,0.025,0.259,0.048,0.337s0.055,0.169,0.096,0.271
	c0.042,0.104,0.093,0.182,0.155,0.233C47.925,59.637,48.003,59.681,48.098,59.718z"/>
<path fill="#8EBD01" d="M52.508,61.093v-8.802h1.76v0.949c0.261-0.238,0.475-0.42,0.64-0.547c0.165-0.126,0.393-0.245,0.685-0.357
	c0.29-0.112,0.601-0.169,0.931-0.169c0.376,0,0.681,0.138,0.915,0.413s0.351,0.612,0.351,1.011v7.502h-1.76v-6.602
	c0-0.307-0.043-0.53-0.131-0.671c-0.087-0.139-0.263-0.209-0.529-0.209c-0.151,0-0.302,0.03-0.45,0.094
	c-0.149,0.061-0.26,0.119-0.333,0.171c-0.073,0.054-0.179,0.137-0.316,0.251v6.966H52.508z"/>
<path fill="#8EBD01" d="M61.64,61.217c-0.724,0-1.306-0.216-1.743-0.646C59.458,60.14,59.16,59.58,59,58.893l1.32-0.44
	c0.316,0.88,0.756,1.32,1.32,1.32c0.28,0,0.496-0.076,0.65-0.23c0.153-0.153,0.23-0.37,0.23-0.649c0-0.408-0.147-0.747-0.44-1.018
	l-1.76-1.32c-0.197-0.133-0.362-0.259-0.495-0.375c-0.133-0.117-0.268-0.26-0.405-0.43c-0.138-0.17-0.242-0.36-0.313-0.57
	C59.035,54.969,59,54.739,59,54.491c0-0.751,0.239-1.327,0.719-1.726c0.478-0.398,1.119-0.599,1.921-0.599
	c0.38,0,0.725,0.062,1.032,0.183c0.307,0.122,0.564,0.292,0.774,0.513c0.208,0.22,0.379,0.464,0.515,0.732
	c0.135,0.268,0.242,0.566,0.32,0.896l-1.32,0.44c-0.064-0.174-0.128-0.324-0.192-0.451c-0.064-0.125-0.151-0.262-0.258-0.408
	c-0.108-0.146-0.235-0.26-0.382-0.34s-0.31-0.121-0.488-0.121c-0.279,0-0.497,0.077-0.65,0.23c-0.154,0.154-0.23,0.37-0.23,0.649
	c0,0.275,0.146,0.523,0.44,0.743l1.76,1.32c0.197,0.155,0.365,0.306,0.505,0.45c0.14,0.144,0.277,0.313,0.41,0.502
	c0.133,0.19,0.234,0.402,0.303,0.636c0.068,0.234,0.103,0.483,0.103,0.75c0,0.752-0.24,1.327-0.719,1.726
	C63.082,61.017,62.442,61.217,61.64,61.217z"/>
<path fill="#8EBD01" d="M65.429,50.971v-1.76h1.76v1.76H65.429z M65.429,61.093v-8.802h1.76v8.802H65.429z"/>
<path fill="#8EBD01" d="M70.187,61.093l-1.98-8.802h1.691l1.224,6.608l1.114-6.608h1.691l-1.966,8.802H70.187z"/>
<path fill="#8EBD01" d="M77.249,61.217c-0.426,0-0.797-0.073-1.11-0.221c-0.315-0.146-0.564-0.337-0.75-0.574
	c-0.185-0.235-0.335-0.538-0.45-0.907c-0.115-0.369-0.194-0.737-0.238-1.106s-0.07-0.8-0.079-1.29c-0.014-0.385-0.014-0.77,0-1.155
	c0.014-0.458,0.045-0.864,0.092-1.221c0.049-0.354,0.132-0.7,0.251-1.034c0.119-0.335,0.273-0.61,0.464-0.825
	c0.19-0.216,0.44-0.389,0.75-0.52c0.309-0.13,0.67-0.196,1.083-0.196c0.376,0,0.707,0.05,0.994,0.148
	c0.286,0.099,0.524,0.248,0.715,0.446c0.189,0.2,0.347,0.421,0.474,0.664c0.125,0.243,0.222,0.538,0.286,0.884
	c0.064,0.347,0.108,0.687,0.134,1.021c0.024,0.335,0.037,0.72,0.037,1.155v0.207h-3.52v0.439c0,0.06,0,0.153,0,0.282
	c-0.009,0.17-0.01,0.346-0.004,0.526c0.008,0.181,0.015,0.358,0.024,0.532c0.009,0.175,0.034,0.34,0.076,0.499
	c0.041,0.157,0.092,0.297,0.151,0.416s0.143,0.213,0.251,0.281c0.107,0.069,0.234,0.104,0.381,0.104
	c0.184,0,0.335-0.035,0.454-0.107c0.119-0.069,0.207-0.177,0.265-0.319c0.057-0.142,0.097-0.284,0.12-0.426
	c0.023-0.143,0.037-0.321,0.042-0.536v-0.372h1.746v0.352c-0.041,0.939-0.272,1.649-0.694,2.131S78.124,61.217,77.249,61.217z
	 M76.382,55.812h1.747v-0.529c-0.005-0.233-0.019-0.438-0.042-0.612c-0.023-0.174-0.063-0.348-0.12-0.522
	c-0.058-0.174-0.146-0.307-0.265-0.398s-0.266-0.138-0.44-0.138c-0.179,0-0.329,0.048-0.45,0.145
	c-0.123,0.097-0.212,0.235-0.269,0.416c-0.057,0.182-0.097,0.358-0.12,0.533c-0.023,0.174-0.037,0.383-0.041,0.625V55.812z"/>
<path fill="#8EBD01" d="M89.336,61.217c-0.692,0-1.195-0.177-1.508-0.53c-0.314-0.353-0.477-0.887-0.486-1.602v-5.474h-0.88v-1.32
	h0.88v-3.08h1.76v3.08h1.32v1.32h-1.32v5.137c0,0.353,0.049,0.612,0.146,0.777s0.29,0.247,0.583,0.247
	c0.128,0,0.326-0.022,0.591-0.068v1.43C89.983,61.188,89.621,61.217,89.336,61.217z"/>
<path fill="#8EBD01" d="M94.15,61.217c-0.426,0-0.796-0.073-1.109-0.221c-0.315-0.146-0.564-0.337-0.75-0.574
	c-0.185-0.235-0.336-0.538-0.451-0.907s-0.194-0.737-0.237-1.106c-0.044-0.369-0.07-0.8-0.08-1.29c-0.014-0.385-0.014-0.77,0-1.155
	c0.014-0.458,0.046-0.864,0.093-1.221c0.049-0.354,0.131-0.7,0.251-1.034c0.119-0.335,0.273-0.61,0.464-0.825
	c0.189-0.216,0.44-0.389,0.75-0.52c0.309-0.13,0.669-0.196,1.082-0.196c0.376,0,0.708,0.05,0.995,0.148
	c0.286,0.099,0.524,0.248,0.715,0.446c0.189,0.2,0.347,0.421,0.474,0.664c0.125,0.243,0.222,0.538,0.286,0.884
	c0.064,0.347,0.108,0.687,0.135,1.021c0.024,0.335,0.037,0.72,0.037,1.155v0.207h-3.521v0.439c0,0.06,0,0.153,0,0.282
	c-0.009,0.17-0.009,0.346-0.003,0.526c0.008,0.181,0.016,0.358,0.024,0.532c0.009,0.175,0.034,0.34,0.075,0.499
	c0.041,0.157,0.091,0.297,0.151,0.416s0.144,0.213,0.252,0.281c0.107,0.069,0.234,0.104,0.38,0.104c0.184,0,0.334-0.035,0.454-0.107
	c0.12-0.069,0.208-0.177,0.266-0.319c0.057-0.142,0.096-0.284,0.119-0.426c0.023-0.143,0.037-0.321,0.042-0.536v-0.372h1.746v0.352
	c-0.041,0.939-0.272,1.649-0.693,2.131C95.675,60.976,95.025,61.217,94.15,61.217z M93.283,55.812h1.747v-0.529
	c-0.004-0.233-0.018-0.438-0.041-0.612c-0.023-0.174-0.063-0.348-0.119-0.522c-0.058-0.174-0.147-0.307-0.266-0.398
	s-0.266-0.138-0.44-0.138c-0.179,0-0.329,0.048-0.449,0.145c-0.122,0.097-0.212,0.235-0.269,0.416
	c-0.058,0.182-0.098,0.358-0.121,0.533c-0.023,0.174-0.037,0.383-0.042,0.625V55.812z"/>
<path fill="#8EBD01" d="M98.077,61.093v-8.802h1.761v0.997c0.628-0.747,1.358-1.121,2.193-1.121c0.421,0,0.731,0.094,0.929,0.278
	c0.197,0.187,0.33,0.48,0.398,0.884c0.289-0.38,0.601-0.669,0.936-0.866s0.756-0.296,1.266-0.296c0.146,0,0.277,0.016,0.396,0.045
	c0.116,0.03,0.219,0.065,0.306,0.106c0.087,0.042,0.163,0.105,0.23,0.189c0.065,0.085,0.121,0.163,0.165,0.234
	c0.043,0.071,0.079,0.173,0.11,0.306c0.028,0.133,0.05,0.243,0.063,0.33s0.026,0.215,0.035,0.385c0.01,0.17,0.014,0.303,0.014,0.398
	c0,0.097,0,0.241,0,0.434c0,0.041,0,0.073,0,0.097v6.401h-1.76V54.67c0-0.022,0-0.06,0-0.109c0-0.151-0.003-0.269-0.008-0.351
	c-0.005-0.083-0.02-0.178-0.044-0.285c-0.026-0.107-0.07-0.188-0.135-0.237c-0.064-0.051-0.148-0.076-0.254-0.076
	c-0.179,0-0.357,0.036-0.536,0.107c-0.179,0.07-0.317,0.14-0.416,0.206s-0.221,0.159-0.368,0.278v6.89h-1.76v-6.388
	c0-0.028,0-0.069,0-0.124c0-0.129,0-0.225,0-0.289s-0.01-0.147-0.024-0.251c-0.017-0.103-0.038-0.18-0.066-0.23
	c-0.027-0.05-0.069-0.096-0.13-0.138c-0.06-0.041-0.133-0.062-0.22-0.062c-0.431,0-0.871,0.186-1.32,0.557v6.925H98.077z"/>
<path fill="#8EBD01" d="M108.419,63.733V52.291h1.76v0.88c0.143-0.15,0.24-0.254,0.295-0.309c0.056-0.056,0.15-0.141,0.286-0.255
	c0.134-0.114,0.252-0.194,0.352-0.24c0.098-0.046,0.223-0.091,0.377-0.134c0.153-0.044,0.313-0.066,0.479-0.066
	c0.298,0,0.563,0.055,0.798,0.162c0.233,0.108,0.426,0.237,0.577,0.389s0.279,0.368,0.385,0.649
	c0.105,0.282,0.184,0.538,0.237,0.767c0.052,0.229,0.093,0.539,0.121,0.929c0.027,0.39,0.042,0.705,0.047,0.945
	c0.005,0.241,0.008,0.572,0.008,0.993v0.131c0,0.386-0.02,0.757-0.059,1.114s-0.109,0.721-0.214,1.09
	c-0.102,0.369-0.233,0.688-0.391,0.959c-0.159,0.271-0.37,0.492-0.633,0.663c-0.265,0.173-0.565,0.259-0.904,0.259
	c-0.596,0-1.183-0.305-1.761-0.915v3.432H108.419z M111.499,59.772c0.188,0,0.344-0.068,0.471-0.206
	c0.125-0.138,0.217-0.333,0.275-0.589c0.057-0.253,0.096-0.506,0.117-0.756c0.021-0.249,0.03-0.542,0.03-0.877l-0.014-1.161
	c0-0.207-0.001-0.372-0.003-0.499c-0.003-0.126-0.011-0.293-0.024-0.502c-0.014-0.208-0.033-0.379-0.058-0.513
	c-0.026-0.133-0.064-0.279-0.115-0.439c-0.05-0.16-0.111-0.287-0.182-0.378c-0.071-0.092-0.163-0.17-0.274-0.234
	c-0.113-0.064-0.24-0.096-0.383-0.096c-0.068,0-0.133,0.004-0.195,0.014c-0.061,0.009-0.127,0.023-0.192,0.045
	c-0.067,0.02-0.122,0.039-0.165,0.055c-0.044,0.017-0.1,0.042-0.168,0.079c-0.069,0.036-0.119,0.063-0.148,0.078
	c-0.03,0.018-0.081,0.048-0.154,0.094s-0.119,0.073-0.138,0.082v5.446C110.582,59.653,111.022,59.772,111.499,59.772z"/>
<path fill="#8EBD01" d="M115.59,61.093V48.771h1.76v12.322H115.59z"/>
<path fill="#8EBD01" d="M120.452,61.217c-0.491,0-0.908-0.212-1.249-0.636c-0.342-0.424-0.512-0.902-0.512-1.435
	c0-0.426,0.072-0.813,0.217-1.162c0.144-0.348,0.297-0.626,0.457-0.836c0.161-0.207,0.428-0.423,0.804-0.646
	c0.376-0.222,0.66-0.375,0.853-0.457c0.193-0.083,0.527-0.218,1.004-0.406c0.083-0.032,0.146-0.057,0.187-0.075v-0.633
	c0-0.444-0.063-0.789-0.187-1.034c-0.123-0.245-0.354-0.368-0.693-0.368c-0.303,0-0.52,0.104-0.649,0.313
	c-0.132,0.209-0.206,0.496-0.225,0.863c-0.005,0.05-0.006,0.126-0.006,0.227h-1.761c0.01-0.844,0.245-1.515,0.708-2.015
	s1.107-0.75,1.933-0.75c0.82,0,1.466,0.254,1.936,0.76c0.47,0.508,0.705,1.175,0.705,2.005v3.961c0,0.917,0.074,1.65,0.226,2.2
	h-1.752l-0.234-1.32c-0.092,0.184-0.166,0.325-0.223,0.427c-0.059,0.101-0.143,0.226-0.252,0.374
	c-0.11,0.149-0.221,0.265-0.33,0.344c-0.11,0.081-0.248,0.15-0.413,0.21S120.649,61.217,120.452,61.217z M121.332,59.772
	c0.124,0,0.244-0.037,0.36-0.11c0.118-0.073,0.205-0.145,0.265-0.213s0.133-0.16,0.22-0.275c0.014-0.022,0.026-0.038,0.035-0.048
	v-2.434c-0.073,0.05-0.195,0.128-0.365,0.233c-0.169,0.105-0.304,0.191-0.404,0.258c-0.102,0.066-0.224,0.158-0.365,0.275
	c-0.143,0.116-0.252,0.229-0.33,0.336c-0.078,0.108-0.147,0.24-0.207,0.396c-0.06,0.155-0.088,0.318-0.088,0.487
	C120.452,59.408,120.745,59.772,121.332,59.772z"/>
<path fill="#8EBD01" d="M127.691,61.217c-0.691,0-1.194-0.177-1.508-0.53c-0.314-0.353-0.477-0.887-0.486-1.602v-5.474h-0.88v-1.32
	h0.88v-3.08h1.761v3.08h1.32v1.32h-1.32v5.137c0,0.353,0.049,0.612,0.146,0.777c0.096,0.165,0.29,0.247,0.583,0.247
	c0.129,0,0.326-0.022,0.592-0.068v1.43C128.338,61.188,127.976,61.217,127.691,61.217z"/>
<path fill="#8EBD01" d="M132.505,61.217c-0.426,0-0.796-0.073-1.109-0.221c-0.314-0.146-0.563-0.337-0.75-0.574
	c-0.185-0.235-0.336-0.538-0.451-0.907c-0.114-0.369-0.193-0.737-0.236-1.106c-0.045-0.369-0.07-0.8-0.08-1.29
	c-0.014-0.385-0.014-0.77,0-1.155c0.014-0.458,0.046-0.864,0.094-1.221c0.049-0.354,0.131-0.7,0.25-1.034
	c0.12-0.335,0.274-0.61,0.465-0.825c0.189-0.216,0.44-0.389,0.75-0.52c0.309-0.13,0.67-0.196,1.082-0.196
	c0.376,0,0.708,0.05,0.995,0.148c0.285,0.099,0.524,0.248,0.715,0.446c0.189,0.2,0.347,0.421,0.474,0.664
	c0.125,0.243,0.222,0.538,0.286,0.884c0.064,0.347,0.108,0.687,0.134,1.021c0.025,0.335,0.037,0.72,0.037,1.155v0.207h-3.521v0.439
	c0,0.06,0,0.153,0,0.282c-0.009,0.17-0.009,0.346-0.003,0.526c0.008,0.181,0.015,0.358,0.024,0.532
	c0.009,0.175,0.033,0.34,0.075,0.499c0.041,0.157,0.091,0.297,0.15,0.416s0.145,0.213,0.253,0.281
	c0.106,0.069,0.233,0.104,0.38,0.104c0.184,0,0.335-0.035,0.454-0.107c0.119-0.069,0.208-0.177,0.266-0.319
	c0.057-0.142,0.097-0.284,0.119-0.426c0.023-0.143,0.037-0.321,0.041-0.536v-0.372h1.747v0.352
	c-0.041,0.939-0.272,1.649-0.693,2.131C134.03,60.976,133.381,61.217,132.505,61.217z M131.639,55.812h1.746v-0.529
	c-0.004-0.233-0.018-0.438-0.041-0.612c-0.022-0.174-0.063-0.348-0.119-0.522c-0.058-0.174-0.146-0.307-0.266-0.398
	s-0.266-0.138-0.44-0.138c-0.179,0-0.328,0.048-0.449,0.145c-0.122,0.097-0.212,0.235-0.269,0.416
	c-0.059,0.182-0.098,0.358-0.121,0.533c-0.022,0.174-0.036,0.383-0.041,0.625V55.812z"/>
<path fill="#8EBD01" d="M89.54,16.808c-0.027-0.284-0.072-0.498-0.131-0.64s-0.146-0.305-0.261-0.488
	c-0.115-0.183-0.253-0.316-0.418-0.399s-0.375-0.156-0.626-0.22c-0.252-0.064-0.542-0.096-0.873-0.096v7.068
	c0.266,0,0.501-0.016,0.708-0.048c0.206-0.032,0.388-0.069,0.544-0.11c0.156-0.041,0.293-0.117,0.413-0.227
	c0.119-0.11,0.217-0.207,0.295-0.289c0.078-0.083,0.145-0.218,0.2-0.406c0.055-0.188,0.096-0.341,0.124-0.46
	s0.047-0.312,0.061-0.578c0.014-0.266,0.021-0.479,0.021-0.64c0-0.16,0-0.41,0-0.75c0-0.091,0-0.16,0-0.206
	c0-0.357-0.003-0.628-0.008-0.812C89.583,17.326,89.567,17.092,89.54,16.808z"/>
<path fill="#8EBD01" d="M141.042,2.632H15.429L3.22,23.78l12.209,21.148h125.613l12.209-21.148L141.042,2.632z M45.942,35.009
	c-1.238,1.104-2.741,1.656-4.511,1.656c-1.146,0-2.164-0.211-3.053-0.633c-0.889-0.421-1.606-0.995-2.152-1.719
	c-0.545-0.724-0.965-1.526-1.258-2.407s-0.463-1.824-0.509-2.833l5.075-0.977c0,0.504,0.009,0.949,0.027,1.334
	c0.019,0.385,0.066,0.806,0.145,1.259s0.184,0.825,0.316,1.114c0.133,0.289,0.321,0.532,0.564,0.729
	c0.243,0.197,0.529,0.295,0.859,0.295c0.99,0,1.485-0.633,1.485-1.898c0-1.732-0.977-3.456-2.929-5.17l-1.554-1.32
	c-0.495-0.413-0.889-0.756-1.183-1.031c-0.293-0.275-0.64-0.646-1.039-1.114c-0.398-0.467-0.71-0.919-0.935-1.354
	s-0.417-0.96-0.578-1.575c-0.16-0.614-0.241-1.265-0.241-1.953c0-2.008,0.637-3.596,1.912-4.765s2.966-1.753,5.075-1.753
	c1.751,0,3.241,0.624,4.47,1.87c1.229,1.247,1.843,2.75,1.843,4.511l-0.014,0.179c0,0.12,0,0.257,0,0.413l-5.17,0.715
	c0-0.101,0.007-0.259,0.021-0.475c0.014-0.215,0.021-0.392,0.021-0.529c0-0.33-0.023-0.646-0.069-0.949
	c-0.046-0.303-0.122-0.605-0.227-0.908c-0.105-0.303-0.269-0.543-0.488-0.722c-0.22-0.179-0.486-0.268-0.798-0.268
	c-0.55,0-0.962,0.215-1.238,0.646c-0.275,0.431-0.413,0.939-0.413,1.526c0,0.513,0.081,0.995,0.241,1.444
	c0.161,0.449,0.403,0.869,0.729,1.258s0.625,0.713,0.901,0.97c0.275,0.257,0.642,0.571,1.1,0.942
	c0.458,0.372,0.784,0.644,0.977,0.818c0.706,0.624,1.302,1.208,1.788,1.753s0.944,1.162,1.375,1.85
	c0.431,0.687,0.754,1.43,0.97,2.227c0.215,0.798,0.323,1.66,0.323,2.585C47.799,32.485,47.18,33.904,45.942,35.009z M56.207,36.157
	h-5.006V11.403h5.006V36.157z M77.831,36.157h-3.686l-0.11-17.41c-0.275,1.788-0.756,4.689-1.444,8.705
	c-0.688,4.016-1.169,6.917-1.444,8.705h-3.741l-3.039-17.52l-0.11,17.52h-3.7V11.403h5.996l2.641,16.502l2.847-16.502h5.79V36.157z
	 M94.015,21.333c-0.215,0.825-0.515,1.506-0.9,2.042c-0.385,0.537-0.88,0.967-1.485,1.293c-0.605,0.325-1.26,0.555-1.966,0.688
	s-1.522,0.204-2.448,0.213v10.588h-5.034V11.403h5.982c2.154,0,3.722,0.601,4.703,1.802c0.981,1.201,1.472,2.938,1.472,5.212
	C94.339,19.536,94.231,20.507,94.015,21.333z M107.575,36.157h-9.929V11.403h5.005v21.315h4.924V36.157z M120.905,14.841h-5.321
	v6.739h3.768v3.521h-3.768v7.618h5.321v3.438h-10.327V11.403h10.327V14.841z"/>
</svg>
