<?xml version="1.0" encoding="utf-8"?>
<!-- Generator: Adobe Illustrator 14.0.0, SVG Export Plug-In  -->
<!DOCTYPE svg PUBLIC "-//W3C//DTD SVG 1.1//EN" "http://www.w3.org/Graphics/SVG/1.1/DTD/svg11.dtd" [
	<!ENTITY ns_flows "http://ns.adobe.com/Flows/1.0/">
]>
<svg version="1.1"
	 xmlns="http://www.w3.org/2000/svg" xmlns:xlink="http://www.w3.org/1999/xlink" xmlns:a="http://ns.adobe.com/AdobeSVGViewerExtensions/3.0/"
	 x="0px" y="0px" width="225px" height="170px" viewBox="0 0 225 170" enable-background="new 0 0 225 170" xml:space="preserve">
<defs>
</defs>
<rect opacity="0" fill="#5EC79E" width="225" height="170"/>
<rect opacity="0" fill="none" width="225" height="170"/>
<g opacity="0.2">
	<path fill="#FFFFFF" d="M180.215,125.173c-0.344,1.404-0.998,2.554-1.455,2.554s-0.831-1.183-0.831-2.629V73.281
		c0-1.446,1.183-2.629,2.629-2.629h10.342c1.446,0,2.349,1.149,2.005,2.554L180.215,125.173z"/>
</g>
<g opacity="0.2">
	<path fill="#FFFFFF" d="M84.644,35.721c-1.446,0-2.629,1.183-2.629,2.629v74.027c0,1.446,1.183,2.629,2.629,2.629h1.082
		c1.446,0,3.141-1.066,3.768-2.369l35.824-74.546c0.626-1.303-0.044-2.37-1.49-2.37H84.644z"/>
</g>
<path opacity="0.5" fill="#FFFFFF" d="M161.759,125.025l-6.037-2.043c-0.457-0.154-1.004-0.635-1.219-1.066l-3.279-6.651
	c-0.045-0.091-0.113-0.177-0.186-0.259h26.891v-6.029H88.354V41.753h115.24v28.899h6.34v-33.18c0-0.963-0.787-1.752-1.752-1.752
	H83.767c-0.963,0-1.752,0.789-1.752,1.752v75.781c0,0.963,0.789,1.752,1.752,1.752h57.145c-0.072,0.082-0.141,0.168-0.186,0.259
	l-3.279,6.651c-0.213,0.432-0.762,0.912-1.217,1.066l-6.039,2.043c-0.457,0.154-0.436,0.281,0.047,0.281h31.475
	C162.194,125.307,162.216,125.18,161.759,125.025z M145.974,37.814c0.535,0,0.971,0.434,0.971,0.968s-0.436,0.97-0.971,0.97
	s-0.969-0.436-0.969-0.97S145.438,37.814,145.974,37.814z"/>
<g opacity="0.5">
	<g>
		<path fill="#FFFFFF" d="M217.957,70.652h-38.275c-0.964,0-1.753,0.789-1.753,1.752v53.569c0,0.964,0.789,1.753,1.753,1.753h38.275
			c0.964,0,1.753-0.789,1.753-1.753V72.405C219.71,71.441,218.921,70.652,217.957,70.652z M198.821,73.238
			c0.473,0,0.855,0.386,0.855,0.858c0,0.47-0.383,0.854-0.855,0.854s-0.859-0.384-0.859-0.854
			C197.962,73.624,198.349,73.238,198.821,73.238z M198.821,125.813c-1.125,0-2.037-0.912-2.037-2.035
			c0-1.122,0.912-2.034,2.037-2.034s2.035,0.912,2.035,2.034C200.856,124.9,199.946,125.813,198.821,125.813z M216.187,119.74
			h-34.732V77.739h34.732V119.74z"/>
	</g>
</g>
<circle fill="#EEEEEE" cx="64.003" cy="85" r="58.713"/>
<g>
	<g>
		<path fill="#5EC79E" d="M79.024,50.452H48.982c-1.518,0-2.76,1.242-2.76,2.76v63.576c0,1.518,1.242,2.76,2.76,2.76h30.042
			c1.518,0,2.76-1.242,2.76-2.76V53.212C81.784,51.694,80.542,50.452,79.024,50.452z M64.005,52.565
			c0.512,0,0.926,0.415,0.926,0.927s-0.414,0.929-0.926,0.929s-0.93-0.417-0.93-0.929S63.493,52.565,64.005,52.565z M60.161,55.477
			h7.686v0.665h-7.686V55.477z M64.003,116.979c-1.51,0-2.734-1.227-2.734-2.732c0-1.51,1.225-2.73,2.734-2.73
			s2.734,1.221,2.734,2.73C66.737,115.752,65.513,116.979,64.003,116.979z M78.401,108.825H49.604V58.097h28.797V108.825z"/>
	</g>
</g>
</svg>
