<?xml version="1.0" encoding="utf-8"?>
<!-- Generator: Adobe Illustrator 14.0.0, SVG Export Plug-In  -->
<!DOCTYPE svg PUBLIC "-//W3C//DTD SVG 1.1//EN" "http://www.w3.org/Graphics/SVG/1.1/DTD/svg11.dtd" [
	<!ENTITY ns_flows "http://ns.adobe.com/Flows/1.0/">
]>
<svg version="1.1"
	 xmlns="http://www.w3.org/2000/svg" xmlns:xlink="http://www.w3.org/1999/xlink" xmlns:a="http://ns.adobe.com/AdobeSVGViewerExtensions/3.0/"
	 x="0px" y="0px" width="225px" height="170px" viewBox="0 0 225 170" enable-background="new 0 0 225 170" xml:space="preserve">
<defs>
</defs>
<rect opacity="0" fill="#5EC79E" width="225" height="170"/>
<rect opacity="0" fill="none" width="225" height="170"/>
<g>
	<g>
		<path fill="#EEEEEE" d="M210.228,46.589H74.718c-1.05,0-1.909,0.859-1.909,1.909v82.538c0,1.05,0.859,1.909,1.909,1.909h62.239
			c-0.079,0.089-0.153,0.183-0.202,0.282l-3.572,7.242c-0.231,0.472-0.829,0.994-1.326,1.162l-6.576,2.227
			c-0.497,0.168-0.475,0.306,0.05,0.306h34.284c0.524,0,0.547-0.138,0.05-0.306l-6.575-2.227c-0.497-0.168-1.095-0.69-1.326-1.162
			l-3.572-7.242c-0.049-0.1-0.123-0.193-0.202-0.282h62.239c1.05,0,1.909-0.859,1.909-1.909V48.498
			C212.137,47.448,211.277,46.589,210.228,46.589z M142.473,48.868c0.584,0,1.058,0.473,1.058,1.056
			c0,0.581-0.474,1.055-1.058,1.055c-0.583,0-1.054-0.474-1.054-1.055C141.419,49.341,141.89,48.868,142.473,48.868z
			 M205.23,126.377H79.715V53.158H205.23V126.377z"/>
	</g>
</g>
<g opacity="0.27">
	<path fill="#FFFFFF" d="M75.673,46.589c-1.575,0-2.863,1.289-2.863,2.863v80.629c0,1.575,1.289,2.863,2.863,2.863h1.179
		c1.575,0,3.421-1.161,4.104-2.581l39.019-81.194c0.683-1.419-0.048-2.581-1.623-2.581H75.673z"/>
</g>
<rect x="87.177" y="59.463" fill="#AFE3CF" width="110.592" height="26.443"/>
<rect x="87.177" y="89.769" fill="#AFE3CF" width="51.814" height="17.612"/>
<rect x="145.955" y="89.769" fill="#AFE3CF" width="51.813" height="17.612"/>
<rect x="87.177" y="111.007" fill="#AFE3CF" width="33.894" height="13.516"/>
<rect x="125.527" y="111.007" fill="#AFE3CF" width="33.892" height="13.516"/>
<rect x="163.876" y="111.007" fill="#AFE3CF" width="33.893" height="13.516"/>
<path fill="#EEEEEE" d="M123.94,38.231V28.59h-1.314v-1.314c0.881-0.315,1.465-0.754,1.754-1.315h1.313v12.271H123.94z"/>
<path fill="#EEEEEE" d="M127.056,38.231v-1.753l3.076-4.383c0.037-0.05,0.115-0.161,0.238-0.332
	c0.124-0.171,0.205-0.287,0.246-0.349c0.042-0.062,0.112-0.171,0.213-0.329c0.102-0.157,0.169-0.278,0.209-0.362
	c0.039-0.084,0.091-0.205,0.156-0.36c0.067-0.155,0.114-0.292,0.143-0.415c0.028-0.12,0.051-0.261,0.073-0.424
	c0.023-0.162,0.036-0.327,0.036-0.497c0-0.487-0.113-0.902-0.34-1.243c-0.226-0.339-0.55-0.509-0.975-0.509
	c-0.252,0-0.467,0.062-0.646,0.185c-0.177,0.123-0.313,0.295-0.406,0.514c-0.095,0.219-0.162,0.451-0.202,0.695
	c-0.041,0.244-0.063,0.51-0.063,0.797v0.438h-1.752v-0.438c0-1.149,0.246-2.042,0.739-2.677s1.27-0.952,2.329-0.952
	c0.994,0,1.754,0.28,2.279,0.839c0.525,0.56,0.788,1.344,0.788,2.352c0,0.38-0.034,0.733-0.1,1.063
	c-0.066,0.329-0.171,0.644-0.315,0.945c-0.144,0.301-0.275,0.55-0.397,0.746c-0.12,0.196-0.287,0.447-0.502,0.753l-3.069,3.944
	h4.384v1.753H127.056z"/>
<path fill="#EEEEEE" d="M137.28,38.355c-0.666,0-1.234-0.158-1.701-0.473c-0.47-0.315-0.813-0.74-1.035-1.277
	c-0.221-0.536-0.331-1.163-0.331-1.879v-5.261c0-1.127,0.255-2.014,0.767-2.659c0.512-0.646,1.278-0.97,2.301-0.97
	c1.019,0,1.783,0.324,2.297,0.973s0.771,1.533,0.771,2.656v5.261c0,1.1-0.262,1.979-0.784,2.64
	C139.041,38.025,138.28,38.355,137.28,38.355z M137.28,36.917c0.877,0,1.315-0.73,1.315-2.19v-5.261
	c0-0.246-0.009-0.466-0.028-0.659c-0.018-0.195-0.056-0.392-0.112-0.59c-0.059-0.199-0.132-0.364-0.227-0.497
	c-0.094-0.132-0.221-0.239-0.38-0.321c-0.16-0.082-0.349-0.123-0.568-0.123s-0.408,0.041-0.569,0.123
	c-0.158,0.082-0.285,0.189-0.379,0.321c-0.095,0.133-0.169,0.298-0.227,0.497c-0.056,0.198-0.093,0.395-0.113,0.59
	c-0.018,0.193-0.026,0.413-0.026,0.659v5.261c0,0.286,0.02,0.552,0.058,0.793c0.039,0.242,0.105,0.473,0.199,0.692
	c0.093,0.219,0.229,0.392,0.406,0.517C136.808,36.854,137.025,36.917,137.28,36.917z"/>
<path fill="#EEEEEE" d="M144.731,38.355c-0.667,0-1.234-0.158-1.703-0.473c-0.467-0.315-0.812-0.74-1.033-1.277
	c-0.221-0.536-0.332-1.163-0.332-1.879v-5.261c0-1.127,0.256-2.014,0.768-2.659c0.511-0.646,1.277-0.97,2.301-0.97
	c1.018,0,1.784,0.324,2.297,0.973c0.514,0.648,0.771,1.533,0.771,2.656v5.261c0,1.1-0.263,1.979-0.784,2.64
	C146.492,38.025,145.731,38.355,144.731,38.355z M144.731,36.917c0.877,0,1.314-0.73,1.314-2.19v-5.261
	c0-0.246-0.01-0.466-0.027-0.659c-0.018-0.195-0.057-0.392-0.113-0.59c-0.057-0.199-0.132-0.364-0.227-0.497
	c-0.093-0.132-0.219-0.239-0.38-0.321c-0.159-0.082-0.349-0.123-0.567-0.123c-0.22,0-0.41,0.041-0.568,0.123
	c-0.161,0.082-0.287,0.189-0.381,0.321c-0.093,0.133-0.169,0.298-0.226,0.497c-0.058,0.198-0.095,0.395-0.112,0.59
	c-0.019,0.193-0.029,0.413-0.029,0.659v5.261c0,0.286,0.021,0.552,0.06,0.793c0.039,0.242,0.105,0.473,0.197,0.692
	c0.095,0.219,0.23,0.392,0.407,0.517C144.258,36.854,144.476,36.917,144.731,36.917z"/>
<path fill="#EEEEEE" d="M152.104,40.861V29.466h1.754v0.877c0.142-0.15,0.24-0.253,0.296-0.309c0.055-0.055,0.148-0.139,0.283-0.253
	s0.251-0.193,0.349-0.239c0.1-0.046,0.224-0.09,0.377-0.134c0.153-0.043,0.312-0.065,0.476-0.065c0.298,0,0.562,0.055,0.794,0.161
	c0.233,0.107,0.425,0.236,0.576,0.388c0.151,0.15,0.279,0.366,0.384,0.646c0.104,0.281,0.184,0.535,0.236,0.764
	c0.052,0.229,0.093,0.536,0.12,0.925c0.027,0.388,0.043,0.702,0.049,0.941c0.005,0.239,0.005,0.569,0.005,0.989v0.13
	c0,0.384-0.019,0.754-0.059,1.109c-0.038,0.356-0.108,0.719-0.212,1.085c-0.102,0.369-0.231,0.687-0.389,0.956
	c-0.158,0.27-0.368,0.489-0.632,0.661c-0.261,0.172-0.562,0.257-0.9,0.257c-0.593,0-1.177-0.304-1.753-0.911v3.417H152.104z
	 M155.174,36.917c0.188,0,0.345-0.068,0.47-0.205c0.125-0.138,0.217-0.332,0.273-0.586c0.057-0.253,0.096-0.504,0.117-0.754
	c0.021-0.247,0.029-0.539,0.029-0.873l-0.014-1.157c0-0.205,0-0.37-0.003-0.495c-0.002-0.126-0.011-0.293-0.024-0.501
	c-0.014-0.207-0.031-0.377-0.057-0.51c-0.026-0.133-0.063-0.278-0.113-0.438c-0.051-0.16-0.111-0.285-0.183-0.376
	c-0.07-0.092-0.161-0.17-0.272-0.233c-0.112-0.063-0.239-0.096-0.38-0.096c-0.068,0-0.136,0.004-0.195,0.014
	c-0.063,0.009-0.126,0.023-0.192,0.045c-0.066,0.02-0.121,0.038-0.165,0.055c-0.043,0.016-0.099,0.041-0.167,0.078
	c-0.07,0.037-0.118,0.063-0.148,0.078c-0.029,0.018-0.08,0.048-0.154,0.094c-0.072,0.045-0.118,0.072-0.137,0.082v5.424
	C154.261,36.798,154.698,36.917,155.174,36.917z"/>
<path fill="#EEEEEE" d="M158.509,38.231l1.754-4.382v-0.179l-1.754-4.205h1.691l1.172,3.349l1.17-3.349h1.666l-1.754,4.205v0.179
	l1.754,4.382h-1.754l-1.041-3.376l-1.15,3.376H158.509z"/>
<path fill="#EEEEEE" d="M15.932,69.326c-0.996,0-1.755-0.279-2.28-0.838c-0.523-0.56-0.788-1.344-0.788-2.354v-0.438h1.754
	c0,0.273,0.008,0.508,0.024,0.701c0.016,0.194,0.049,0.392,0.102,0.593c0.054,0.2,0.124,0.362,0.216,0.482
	c0.091,0.122,0.219,0.221,0.383,0.298c0.165,0.078,0.361,0.116,0.59,0.116s0.425-0.038,0.59-0.116
	c0.164-0.077,0.291-0.176,0.383-0.298c0.091-0.12,0.163-0.282,0.216-0.482c0.053-0.201,0.086-0.398,0.102-0.593
	c0.018-0.193,0.023-0.428,0.023-0.701c0-0.703-0.134-1.245-0.405-1.623c-0.271-0.38-0.722-0.569-1.347-0.569v-1.752
	c0.64,0,1.092-0.132,1.357-0.396c0.263-0.262,0.395-0.715,0.395-1.358c0-0.58-0.095-1.017-0.286-1.312
	c-0.192-0.294-0.535-0.441-1.027-0.441c-0.229,0-0.425,0.038-0.59,0.116c-0.164,0.078-0.292,0.178-0.383,0.298
	c-0.092,0.122-0.162,0.282-0.216,0.483c-0.053,0.2-0.086,0.398-0.102,0.593c-0.017,0.193-0.024,0.427-0.024,0.701h-1.754v-0.438
	c0-1.004,0.265-1.787,0.791-2.349c0.528-0.562,1.286-0.843,2.277-0.843c0.994,0,1.757,0.28,2.281,0.839
	c0.524,0.56,0.786,1.344,0.786,2.353c0,0.694-0.155,1.264-0.465,1.71c-0.312,0.443-0.74,0.751-1.289,0.92
	c0.572,0.191,1.008,0.551,1.306,1.075c0.299,0.524,0.448,1.189,0.448,1.993c0,1.149-0.246,2.042-0.74,2.677
	C17.767,69.009,16.991,69.326,15.932,69.326z"/>
<path fill="#EEEEEE" d="M19.849,69.202v-1.753l3.076-4.382c0.035-0.05,0.114-0.161,0.238-0.332c0.124-0.172,0.205-0.288,0.246-0.35
	c0.042-0.061,0.112-0.171,0.213-0.329c0.102-0.156,0.17-0.277,0.209-0.362c0.039-0.084,0.092-0.204,0.156-0.359
	c0.067-0.155,0.114-0.293,0.143-0.415c0.027-0.12,0.051-0.262,0.073-0.425c0.023-0.161,0.035-0.327,0.035-0.496
	c0-0.488-0.113-0.902-0.338-1.243c-0.227-0.34-0.552-0.51-0.976-0.51c-0.252,0-0.467,0.062-0.646,0.185
	c-0.176,0.123-0.313,0.295-0.407,0.514c-0.094,0.22-0.161,0.452-0.202,0.696c-0.04,0.244-0.061,0.509-0.061,0.797v0.438h-1.752
	v-0.438c0-1.15,0.245-2.043,0.737-2.678c0.494-0.635,1.27-0.952,2.33-0.952c0.994,0,1.754,0.28,2.278,0.839
	c0.525,0.56,0.789,1.344,0.789,2.353c0,0.379-0.034,0.733-0.101,1.062c-0.065,0.329-0.172,0.644-0.315,0.945
	c-0.143,0.301-0.275,0.55-0.396,0.746c-0.12,0.196-0.288,0.447-0.502,0.753l-3.068,3.944h4.383v1.753H19.849z"/>
<path fill="#EEEEEE" d="M30.073,69.326c-0.666,0-1.234-0.157-1.702-0.473c-0.469-0.314-0.813-0.74-1.034-1.277
	c-0.221-0.535-0.332-1.163-0.332-1.879v-5.26c0-1.128,0.255-2.014,0.767-2.66c0.513-0.646,1.278-0.97,2.302-0.97
	c1.019,0,1.783,0.324,2.297,0.973s0.771,1.534,0.771,2.657v5.26c0,1.1-0.262,1.98-0.784,2.64
	C31.835,68.997,31.073,69.326,30.073,69.326z M30.073,67.888c0.878,0,1.314-0.729,1.314-2.19v-5.26c0-0.247-0.009-0.467-0.026-0.66
	c-0.02-0.194-0.058-0.392-0.113-0.589c-0.059-0.2-0.132-0.364-0.228-0.497c-0.092-0.133-0.22-0.24-0.379-0.322
	c-0.161-0.082-0.35-0.123-0.568-0.123c-0.22,0-0.409,0.041-0.569,0.123c-0.159,0.082-0.285,0.189-0.379,0.322
	c-0.095,0.133-0.17,0.297-0.227,0.497c-0.058,0.197-0.094,0.395-0.112,0.589c-0.019,0.193-0.028,0.413-0.028,0.66v5.26
	c0,0.287,0.021,0.552,0.058,0.794c0.039,0.241,0.106,0.473,0.199,0.691c0.094,0.22,0.229,0.393,0.407,0.517
	C29.601,67.826,29.818,67.888,30.073,67.888z"/>
<path fill="#EEEEEE" d="M37.447,71.832V60.438H39.2v0.876c0.142-0.15,0.241-0.253,0.296-0.308s0.149-0.139,0.283-0.253
	c0.136-0.114,0.252-0.194,0.35-0.24c0.099-0.046,0.224-0.089,0.377-0.133s0.311-0.065,0.476-0.065c0.297,0,0.562,0.054,0.794,0.161
	c0.233,0.106,0.424,0.235,0.575,0.387c0.15,0.15,0.278,0.366,0.385,0.646c0.104,0.282,0.184,0.536,0.235,0.764
	c0.052,0.229,0.092,0.536,0.12,0.925c0.027,0.388,0.044,0.702,0.049,0.941c0.004,0.24,0.006,0.569,0.006,0.99v0.13
	c0,0.384-0.02,0.753-0.059,1.109c-0.038,0.355-0.108,0.718-0.213,1.085c-0.101,0.368-0.232,0.687-0.39,0.955
	c-0.157,0.27-0.366,0.49-0.63,0.661c-0.262,0.172-0.563,0.257-0.9,0.257c-0.594,0-1.179-0.304-1.754-0.911v3.417H37.447z
	 M40.517,67.888c0.186,0,0.344-0.068,0.468-0.205c0.126-0.137,0.217-0.331,0.275-0.586c0.057-0.252,0.095-0.504,0.116-0.753
	c0.02-0.249,0.03-0.54,0.03-0.873l-0.014-1.157c0-0.205,0-0.37-0.003-0.496c-0.002-0.125-0.012-0.292-0.024-0.501
	c-0.015-0.207-0.033-0.377-0.059-0.51s-0.063-0.277-0.111-0.438c-0.051-0.16-0.111-0.286-0.184-0.377
	c-0.07-0.092-0.161-0.169-0.273-0.233c-0.11-0.063-0.237-0.096-0.38-0.096c-0.067,0-0.134,0.005-0.195,0.014
	c-0.061,0.01-0.125,0.024-0.192,0.045c-0.065,0.021-0.12,0.039-0.163,0.055c-0.044,0.017-0.1,0.042-0.168,0.079
	c-0.069,0.036-0.118,0.063-0.147,0.078c-0.029,0.017-0.081,0.047-0.154,0.093s-0.118,0.072-0.138,0.082v5.424
	C39.604,67.77,40.041,67.888,40.517,67.888z"/>
<path fill="#EEEEEE" d="M43.852,69.202l1.753-4.382v-0.178l-1.753-4.205h1.69l1.173,3.349l1.169-3.349h1.665l-1.753,4.205v0.178
	l1.753,4.382h-1.753l-1.04-3.375l-1.151,3.375H43.852z"/>
<g>
	<g>
		<path fill="#EEEEEE" d="M45.008,80.678H17.403c-1.395,0-2.536,1.141-2.536,2.536v58.413c0,1.395,1.141,2.536,2.536,2.536h27.604
			c1.395,0,2.536-1.142,2.536-2.536V83.214C47.544,81.819,46.403,80.678,45.008,80.678z M31.207,82.619
			c0.47,0,0.852,0.382,0.852,0.852c0,0.472-0.382,0.853-0.852,0.853c-0.471,0-0.853-0.381-0.853-0.853
			C30.354,83.001,30.736,82.619,31.207,82.619z M27.677,85.294h7.061v0.612h-7.061V85.294z M31.206,141.802
			c-1.386,0-2.512-1.126-2.512-2.51c0-1.388,1.126-2.51,2.512-2.51c1.388,0,2.512,1.122,2.512,2.51
			C33.718,140.676,32.594,141.802,31.206,141.802z M44.436,134.311h-26.46V87.702h26.46V134.311z"/>
	</g>
</g>
<rect x="29.646" y="93.419" fill="#AFE3CF" width="12.371" height="5.156"/>
<rect x="20.396" y="100.175" fill="#AFE3CF" width="21.621" height="16.557"/>
<rect x="20.396" y="120.319" fill="#AFE3CF" width="21.621" height="12.625"/>
</svg>
