<?xml version="1.0" encoding="utf-8"?>
<!-- Generator: Adobe Illustrator 14.0.0, SVG Export Plug-In  -->
<!DOCTYPE svg PUBLIC "-//W3C//DTD SVG 1.1//EN" "http://www.w3.org/Graphics/SVG/1.1/DTD/svg11.dtd" [
	<!ENTITY ns_flows "http://ns.adobe.com/Flows/1.0/">
]>
<svg version="1.1"
	 xmlns="http://www.w3.org/2000/svg" xmlns:xlink="http://www.w3.org/1999/xlink" xmlns:a="http://ns.adobe.com/AdobeSVGViewerExtensions/3.0/"
	 x="0px" y="0px" width="225px" height="170px" viewBox="0 0 225 170" enable-background="new 0 0 225 170" xml:space="preserve">
<defs>
</defs>
<rect opacity="0" fill="#5EC79E" width="225" height="170"/>
<rect opacity="0" fill="none" width="225" height="170"/>
<path fill="#AFE3CF" d="M140.516,72.693c0,2.052-1.664,3.715-3.715,3.715H53.473c-2.052,0-3.715-1.663-3.715-3.715v-32.2
	c0-2.051,1.663-3.715,3.715-3.715h83.328c2.051,0,3.715,1.664,3.715,3.715V72.693z"/>
<path fill="#AFE3CF" d="M182.932,24.694H42.068c-2.05,0-3.715,1.665-3.715,3.715v57.437c0,2.053,1.665,3.715,3.715,3.715h140.863
	c2.052,0,3.715-1.662,3.715-3.715V28.409C186.646,26.359,184.983,24.694,182.932,24.694z M180.467,79.204
	c0,2.051-1.662,3.715-3.714,3.715H48.248c-2.051,0-3.715-1.664-3.715-3.715v-44.15c0-2.052,1.664-3.715,3.715-3.715h128.505
	c2.052,0,3.714,1.663,3.714,3.715V79.204z"/>
<path fill="#AFE3CF" d="M180.807,36.778h-29.434c-2.052,0-3.716,1.664-3.716,3.715v32.2c0,2.052,1.664,3.715,3.716,3.715h29.434
	V36.778z"/>
<polygon fill-rule="evenodd" clip-rule="evenodd" fill="#5EC79E" points="88.147,52.14 76.747,52.14 76.747,47.229 69.423,54.551 
	76.747,61.874 76.747,56.961 88.147,56.961 "/>
<polygon fill-rule="evenodd" clip-rule="evenodd" fill="#5EC79E" points="105.762,56.961 117.16,56.961 117.16,61.874 
	124.482,54.55 117.16,47.229 117.16,52.14 105.762,52.14 "/>
<g>
	<path fill-rule="evenodd" clip-rule="evenodd" fill="#EEEEEE" d="M99.854,145.697l1.442-1.263c0.013-0.012,0.496-0.472,0.479-1.31
		c-0.022-1.078-0.851-2.349-2.396-3.674c-0.177-0.188-10.71-12.083-15.815-21.017c-0.121-0.201-3.046-5.279,3.186-12.266
		c0.385-1.298,2.868-9.603,4.377-13.271c0.093-1.014,0.816-9.682,0.816-34.451c0.581-6.429,2.775-7.765,4.513-7.765
		c2.526,0,5.009,2.941,5.592,5.062c0.455,0.814,0.772,3.784,1.735,15.437c0.48,5.814,1.116,13.514,1.577,15.956
		c1.117-0.683,3.24-1.751,5.586-1.751c2.052,0,4.858,0.851,6.872,4.785c0.888-0.397,2.519-0.989,4.354-0.989
		c2.388,0,5.571,1.018,7.376,5.787c1.418,0.206,5.651,1.068,8.31,4.252c1.691,2.024,2.413,4.59,2.145,7.626
		c0.18,1.539,2.125,19.767-4.753,32.969l-1.846,6.228L99.854,145.697z"/>
	<path fill="#5EC79E" d="M96.456,51.415c2.181,0,4.533,2.848,4.933,4.713c0.878,0.141,2.561,31.837,3.593,32.145
		c0,0,2.8-2.154,5.964-2.154c2.294,0,4.781,1.133,6.532,5.038c0,0,2.154-1.243,4.693-1.243c2.454,0,5.267,1.161,6.841,5.728
		c0,0,11.215,0.962,10.253,11.216c0,0,2.351,19.225-4.698,32.683l-1.709,5.767l-31.079-0.32c0,0,2.562-2.243-1.924-6.09
		c0,0-10.53-11.854-15.656-20.824c0,0-2.884-4.807,3.205-11.536c0,0,2.838-9.611,4.441-13.458c0,0,0.83-7.908,0.83-34.629
		C93.156,53.152,94.754,51.416,96.456,51.415 M96.457,49.951L96.457,49.951c-2.044,0-4.612,1.452-5.24,8.364l-0.006,0.066v0.066
		c0,24.03-0.681,32.88-0.803,34.275c-1.475,3.624-3.811,11.393-4.314,13.082c-6.442,7.322-3.289,12.788-3.15,13.02
		c5.126,8.973,15.382,20.555,15.816,21.044l0.066,0.074l0.076,0.064c1.812,1.554,2.119,2.609,2.14,3.1
		c0.022,0.504-0.234,0.78-0.263,0.811l-3.427,2.588l4.412-0.056l31.08,0.32l1.104,0.012l0.313-1.06l1.669-5.631
		c6.841-13.199,5.034-31.249,4.807-33.255c0.268-3.203-0.512-5.923-2.318-8.085c-2.582-3.092-6.543-4.118-8.342-4.438
		c-1.976-4.82-5.353-5.864-7.905-5.864c-1.582,0-3.024,0.411-4.023,0.795c-2.152-3.755-5.051-4.59-7.202-4.59
		c-1.956,0-3.762,0.688-5.029,1.336c-0.43-3.072-0.979-9.729-1.404-14.87c-0.323-3.913-0.628-7.609-0.914-10.434
		c-0.299-2.959-0.47-4.474-0.878-5.25C102.02,53.117,99.362,49.951,96.457,49.951L96.457,49.951z"/>
</g>
<g>
	<g>
		<path fill="#EEEEEE" d="M41.186,101.669c-0.234,0-0.442-0.056-0.622-0.166c-0.18-0.111-0.357-0.257-0.531-0.438v0.522h-1.152
			v-8.063h1.152v2.873c0.108-0.114,0.189-0.196,0.244-0.248c0.053-0.052,0.132-0.115,0.235-0.193
			c0.105-0.078,0.211-0.133,0.323-0.164c0.111-0.032,0.234-0.048,0.369-0.048c0.195,0,0.37,0.035,0.522,0.106
			c0.153,0.069,0.279,0.155,0.379,0.254c0.098,0.099,0.183,0.241,0.252,0.427c0.068,0.188,0.12,0.354,0.154,0.505
			c0.035,0.15,0.062,0.353,0.079,0.608c0.017,0.255,0.029,0.461,0.032,0.619c0.003,0.157,0.004,0.374,0.004,0.65v0.077
			c0,0.25-0.012,0.494-0.038,0.729c-0.025,0.234-0.072,0.473-0.14,0.716c-0.067,0.243-0.152,0.453-0.256,0.63
			s-0.243,0.322-0.415,0.436C41.604,101.612,41.408,101.669,41.186,101.669z M40.897,100.724c0.124,0,0.226-0.045,0.31-0.135
			c0.081-0.09,0.142-0.219,0.179-0.386c0.038-0.166,0.063-0.332,0.077-0.497c0.013-0.165,0.021-0.357,0.021-0.576
			c0-0.161-0.001-0.376-0.003-0.644c-0.001-0.269-0.002-0.469-0.002-0.604c0-0.135-0.002-0.253-0.009-0.353
			c-0.005-0.101-0.021-0.206-0.044-0.317c-0.024-0.111-0.057-0.202-0.097-0.274c-0.041-0.072-0.098-0.132-0.169-0.178
			c-0.072-0.047-0.159-0.07-0.261-0.07c-0.318,0-0.606,0.076-0.864,0.229v3.625C40.33,100.663,40.618,100.724,40.897,100.724z"/>
		<path fill="#EEEEEE" d="M43.576,101.588v-8.067h1.152v8.067H43.576z"/>
		<path fill="#EEEEEE" d="M46.759,101.669c-0.32,0-0.594-0.14-0.817-0.417c-0.224-0.276-0.335-0.59-0.335-0.938
			c0-0.279,0.047-0.532,0.141-0.761c0.095-0.228,0.195-0.41,0.3-0.547c0.105-0.136,0.28-0.277,0.526-0.423
			c0.247-0.146,0.433-0.246,0.559-0.299c0.126-0.055,0.345-0.144,0.657-0.267c0.055-0.021,0.095-0.038,0.122-0.049v-0.414
			c0-0.292-0.04-0.518-0.122-0.679c-0.081-0.16-0.232-0.24-0.454-0.24c-0.198,0-0.34,0.067-0.425,0.204
			c-0.085,0.137-0.135,0.326-0.147,0.566c-0.003,0.032-0.004,0.082-0.004,0.148h-1.152c0.005-0.554,0.16-0.992,0.463-1.32
			c0.302-0.326,0.725-0.49,1.265-0.49c0.537,0,0.959,0.167,1.267,0.498c0.309,0.332,0.461,0.77,0.461,1.313v2.594
			c0,0.599,0.05,1.08,0.148,1.439h-1.148l-0.153-0.864c-0.06,0.12-0.109,0.213-0.146,0.278c-0.038,0.067-0.093,0.149-0.165,0.247
			s-0.144,0.171-0.216,0.224c-0.072,0.054-0.162,0.099-0.27,0.138S46.887,101.669,46.759,101.669z M47.335,100.724
			c0.08,0,0.159-0.024,0.235-0.073c0.077-0.047,0.135-0.094,0.174-0.139c0.039-0.044,0.087-0.104,0.144-0.18
			c0.009-0.016,0.018-0.025,0.023-0.032v-1.594c-0.047,0.033-0.127,0.084-0.239,0.153c-0.111,0.07-0.199,0.125-0.266,0.17
			c-0.065,0.043-0.145,0.104-0.237,0.18c-0.093,0.076-0.166,0.149-0.217,0.22c-0.05,0.071-0.097,0.157-0.136,0.259
			c-0.039,0.103-0.058,0.21-0.058,0.319C46.759,100.485,46.951,100.724,47.335,100.724z"/>
		<path fill="#EEEEEE" d="M50.055,101.588v-8.067h1.152v2.926c0.171-0.156,0.31-0.274,0.418-0.357
			c0.109-0.082,0.258-0.16,0.448-0.234c0.191-0.073,0.395-0.11,0.61-0.11c0.246,0,0.446,0.09,0.599,0.271
			c0.153,0.18,0.229,0.399,0.229,0.661v4.912h-1.153v-4.322c0-0.197-0.024-0.344-0.074-0.437c-0.049-0.093-0.157-0.14-0.321-0.14
			c-0.233,0-0.486,0.112-0.756,0.339v4.56H50.055z"/>
		<path fill="#EEEEEE" d="M58.699,101.669c-0.234,0-0.442-0.056-0.622-0.166c-0.18-0.111-0.356-0.257-0.531-0.438v0.522h-1.153
			v-8.063h1.153v2.873c0.108-0.114,0.189-0.196,0.244-0.248c0.054-0.052,0.133-0.115,0.235-0.193
			c0.105-0.078,0.212-0.133,0.323-0.164c0.111-0.032,0.234-0.048,0.369-0.048c0.195,0,0.37,0.035,0.523,0.106
			c0.152,0.069,0.278,0.155,0.378,0.254c0.098,0.099,0.183,0.241,0.251,0.427c0.069,0.188,0.121,0.354,0.155,0.505
			c0.036,0.15,0.062,0.353,0.079,0.608c0.019,0.255,0.029,0.461,0.032,0.619c0.003,0.157,0.005,0.374,0.005,0.65v0.077
			c0,0.25-0.014,0.494-0.039,0.729c-0.026,0.234-0.072,0.473-0.139,0.716c-0.067,0.243-0.153,0.453-0.257,0.63
			c-0.104,0.177-0.241,0.322-0.415,0.436C59.118,101.612,58.92,101.669,58.699,101.669z M58.411,100.724
			c0.123,0,0.225-0.045,0.309-0.135c0.082-0.09,0.142-0.219,0.18-0.386c0.037-0.166,0.063-0.332,0.076-0.497
			c0.014-0.165,0.021-0.357,0.021-0.576c0-0.161-0.001-0.376-0.003-0.644c-0.001-0.269-0.002-0.469-0.002-0.604
			c0-0.135-0.002-0.253-0.009-0.353c-0.005-0.101-0.02-0.206-0.044-0.317c-0.024-0.111-0.057-0.202-0.097-0.274
			c-0.041-0.072-0.098-0.132-0.168-0.178c-0.073-0.047-0.159-0.07-0.261-0.07c-0.318,0-0.607,0.076-0.865,0.229v3.625
			C57.843,100.663,58.131,100.724,58.411,100.724z"/>
		<path fill="#EEEEEE" d="M61.089,101.588v-8.067h1.153v8.067H61.089z"/>
		<path fill="#EEEEEE" d="M64.272,101.669c-0.321,0-0.593-0.14-0.817-0.417c-0.224-0.276-0.335-0.59-0.335-0.938
			c0-0.279,0.047-0.532,0.141-0.761c0.094-0.228,0.195-0.41,0.3-0.547c0.105-0.136,0.281-0.277,0.527-0.423
			c0.246-0.146,0.432-0.246,0.558-0.299c0.126-0.055,0.345-0.144,0.658-0.267c0.053-0.021,0.093-0.038,0.121-0.049v-0.414
			c0-0.292-0.041-0.518-0.121-0.679c-0.083-0.16-0.233-0.24-0.456-0.24c-0.198,0-0.34,0.067-0.425,0.204s-0.135,0.326-0.146,0.566
			c-0.004,0.032-0.005,0.082-0.005,0.148H63.12c0.005-0.554,0.161-0.992,0.463-1.32c0.302-0.326,0.725-0.49,1.265-0.49
			c0.537,0,0.959,0.167,1.267,0.498c0.309,0.332,0.461,0.77,0.461,1.313v2.594c0,0.599,0.049,1.08,0.148,1.439h-1.147l-0.152-0.864
			c-0.061,0.12-0.11,0.213-0.147,0.278c-0.037,0.067-0.091,0.149-0.165,0.247c-0.071,0.098-0.144,0.171-0.216,0.224
			c-0.072,0.054-0.162,0.099-0.269,0.138C64.52,101.649,64.401,101.669,64.272,101.669z M64.848,100.724
			c0.08,0,0.16-0.024,0.236-0.073c0.076-0.047,0.134-0.094,0.173-0.139c0.039-0.044,0.087-0.104,0.144-0.18
			c0.009-0.016,0.017-0.025,0.023-0.032v-1.594c-0.048,0.033-0.128,0.084-0.238,0.153c-0.112,0.07-0.201,0.125-0.266,0.17
			c-0.066,0.043-0.146,0.104-0.239,0.18c-0.092,0.076-0.165,0.149-0.217,0.22c-0.05,0.071-0.095,0.157-0.134,0.259
			c-0.039,0.103-0.059,0.21-0.059,0.319C64.272,100.485,64.464,100.724,64.848,100.724z"/>
		<path fill="#EEEEEE" d="M67.567,101.588v-8.067h1.153v2.926c0.17-0.156,0.31-0.274,0.417-0.357
			c0.109-0.082,0.258-0.16,0.449-0.234c0.19-0.073,0.394-0.11,0.609-0.11c0.246,0,0.446,0.09,0.599,0.271
			c0.153,0.18,0.229,0.399,0.229,0.661v4.912h-1.153v-4.322c0-0.197-0.023-0.344-0.074-0.437c-0.049-0.093-0.156-0.14-0.322-0.14
			c-0.233,0-0.486,0.112-0.755,0.339v4.56H67.567z"/>
		<path fill="#EEEEEE" d="M72.082,99.859l-0.288-6.339h1.153l-0.208,6.339H72.082z M71.794,101.588v-1.152h1.153v1.152H71.794z"/>
	</g>
</g>
</svg>
